<?xml version="1.0" encoding="utf-8"?>
<!-- Generator: Adobe Illustrator 26.0.2, SVG Export Plug-In . SVG Version: 6.00 Build 0)  -->
<svg version="1.1" id="Layer_1" xmlns="http://www.w3.org/2000/svg" xmlns:xlink="http://www.w3.org/1999/xlink" x="0px" y="0px"
	 viewBox="0 0 20 20" style="enable-background:new 0 0 20 20;" xml:space="preserve">
<style type="text/css">
	.st0{fill:#FFFFFF;}
	.st1{enable-background:new    ;}
</style>
<g class="st1">
	<path class="st0" d="M2.7,4.9c-1.4,0-2.4-1-2.4-2.2c0-1.3,1-2.2,2.4-2.2c1.5,0,2.4,1,2.4,2.2C5.1,4,4.2,4.9,2.7,4.9L2.7,4.9z
		 M4.7,7v12.5h-4V7H4.7z M11.2,12.2c0-1.6,1-2.4,2.2-2.4c1.2,0,2.2,0.8,2.2,2.8v6.9h4v-7.3c0-3.6-2-5.7-4.9-5.7
		c-1.6,0-2.8,0.9-3.6,2.1L11.1,7h-4c0,0.4,0.1,2.8,0.1,2.8v9.7h4V12.2z"/>
</g>
</svg>
