<?xml version="1.0" encoding="utf-8"?>
<!-- Generator: Adobe Illustrator 26.0.2, SVG Export Plug-In . SVG Version: 6.00 Build 0)  -->
<svg version="1.1" id="Layer_1" xmlns="http://www.w3.org/2000/svg" xmlns:xlink="http://www.w3.org/1999/xlink" x="0px" y="0px"
	 viewBox="0 0 21 20" style="enable-background:new 0 0 21 20;" xml:space="preserve">
<style type="text/css">
	.st0{fill:#FFFFFF;}
	.st1{enable-background:new    ;}
</style>
<g class="st1">
	<path class="st0" d="M18.8,5.7c0,0.2,0,0.4,0,0.6c0,5.7-4.3,12.2-12.2,12.2c-2.4,0-4.7-0.5-6.6-1.7c0.3,0,0.7,0.1,1,0.1
		c2,0,3.9-0.9,5.3-2c-1.9,0-3.5-1.3-4-3c0.3,0,0.5,0.1,0.8,0.1c0.4,0,0.8,0,1.1-0.1c-2-0.4-3.4-2.1-3.4-4.2c0,0,0,0,0,0
		C1.5,7.8,2.1,8,2.8,8C1.7,7.2,0.9,5.9,0.9,4.5c0-0.8,0.2-1.5,0.6-2.1C3.6,5,6.8,6.6,10.3,6.8c-0.1-0.3-0.1-0.7-0.1-1
		c0-2.4,1.9-4.3,4.3-4.3c1.2,0,2.3,0.5,3.1,1.4c1-0.2,1.9-0.6,2.7-1c-0.3,1-1,1.8-1.9,2.4c0.9-0.1,1.7-0.3,2.5-0.7
		C20.4,4.4,19.7,5.1,18.8,5.7z"/>
</g>
</svg>
