<?xml version="1.0" encoding="utf-8"?>
<!-- Generator: Adobe Illustrator 26.0.2, SVG Export Plug-In . SVG Version: 6.00 Build 0)  -->
<svg version="1.1" id="Layer_1" xmlns="http://www.w3.org/2000/svg" xmlns:xlink="http://www.w3.org/1999/xlink" x="0px" y="0px"
	 viewBox="0 0 20 20" style="enable-background:new 0 0 20 20;" xml:space="preserve">
<style type="text/css">
	.st0{fill:#FFFFFF;}
	.st1{enable-background:new    ;}
</style>
<g id="Group_1439" transform="translate(69 1)">
	<g id="Path_4">
		<path class="st0" d="M-59,0.8c2.7,0,3,0,4,0.1c0.6,0,1.3,0.1,1.9,0.3c0.9,0.3,1.6,1,1.9,1.9c0.2,0.6,0.3,1.2,0.3,1.9
			c0,1.1,0.1,1.4,0.1,4s0,3-0.1,4c0,0.6-0.1,1.3-0.3,1.9c-0.3,0.9-1,1.6-1.9,1.9c-0.6,0.2-1.2,0.3-1.9,0.3c-1.1,0-1.4,0.1-4,0.1
			c-2.7,0-3,0-4-0.1c-0.6,0-1.3-0.1-1.9-0.3c-0.9-0.3-1.6-1-1.9-1.9c-0.2-0.6-0.3-1.2-0.3-1.9c0-1.1-0.1-1.4-0.1-4s0-3,0.1-4
			c0-0.6,0.1-1.3,0.3-1.9c0.3-0.9,1-1.6,1.9-1.9c0.6-0.2,1.2-0.3,1.9-0.3C-62,0.8-61.7,0.8-59,0.8 M-59-1c-2.7,0-3.1,0-4.1,0.1
			c-0.8,0-1.7,0.2-2.4,0.5C-66.9,0-68,1.1-68.5,2.5c-0.3,0.8-0.4,1.6-0.5,2.4C-69,5.9-69,6.3-69,9s0,3.1,0.1,4.1
			c0,0.8,0.2,1.7,0.5,2.4c0.5,1.3,1.6,2.4,2.9,2.9c0.8,0.3,1.6,0.4,2.4,0.5c1.1,0,1.4,0.1,4.1,0.1c2.7,0,3.1,0,4.1-0.1
			c0.8,0,1.7-0.2,2.4-0.5c1.3-0.5,2.4-1.6,2.9-2.9c0.3-0.8,0.4-1.6,0.5-2.4c0-1.1,0.1-1.4,0.1-4.1s0-3.1-0.1-4.1
			c0-0.8-0.2-1.7-0.5-2.4C-50,1.1-51.1,0-52.4-0.5c-0.8-0.3-1.6-0.4-2.4-0.5C-55.9-1-56.3-1-59-1z"/>
	</g>
	<g id="Path_5">
		<path class="st0" d="M-59,3.9c-2.8,0-5.1,2.3-5.1,5.1s2.3,5.1,5.1,5.1s5.1-2.3,5.1-5.1c0,0,0,0,0,0C-53.9,6.2-56.2,3.9-59,3.9z
			 M-59,12.3c-1.8,0-3.3-1.5-3.3-3.3c0-1.8,1.5-3.3,3.3-3.3c1.8,0,3.3,1.5,3.3,3.3l0,0C-55.7,10.8-57.2,12.3-59,12.3z"/>
	</g>
	<g id="Ellipse_1">
		<ellipse class="st0" cx="-53.7" cy="3.7" rx="1.2" ry="1.2"/>
	</g>
</g>
</svg>
