<svg xmlns="http://www.w3.org/2000/svg" width="169.597" height="64.846" viewBox="0 0 169.597 64.846">
  <g id="g26" transform="translate(-48.106 -49.812)">
    <path id="path2" d="M361.218,82.234c0,17.907-21.474,32.423-47.966,32.423s-47.965-14.516-47.965-32.423,21.475-32.422,47.965-32.422S361.218,64.327,361.218,82.234Z" transform="translate(-143.515)" fill="#fff"/>
    <path id="path4" d="M144.037,82.234c0,17.907-21.474,32.423-47.966,32.423S48.106,100.141,48.106,82.234,69.58,49.812,96.071,49.812,144.037,64.327,144.037,82.234Z" transform="translate(0)" fill="#fff"/>
    <path id="path6" d="M104.072,119.417c-2.85-.772-4.579-1.346-4.579-2.812,0-1.217,1.214-2,3.091-2a8.469,8.469,0,0,1,5.336,2l.043.035.185-3.6v-.017l-.016-.008a10.3,10.3,0,0,0-5.471-1.383,7.914,7.914,0,0,0-4.571,1.291,4.492,4.492,0,0,0-1.954,3.789c0,3.093,2.569,4.413,4.724,4.975,2.88.775,4.918,1.462,4.918,3.255,0,1.509-1.334,2.447-3.481,2.447a8.774,8.774,0,0,1-6.01-2.545l-.042-.04-.343,3.833,0,.016.014.009a11.056,11.056,0,0,0,6.253,1.776,8.229,8.229,0,0,0,4.974-1.425,5.1,5.1,0,0,0,2.044-4.254c0-2.722-1.673-4.468-5.114-5.34Z" transform="translate(-31.584 -40.849)"/>
    <path id="path8" d="M151.533,131.144c0-2.68-1.615-4.457-3.918-4.457a4.3,4.3,0,0,0-3.653,2.016v5.067a4.556,4.556,0,0,0,3.68,1.83C149.918,135.6,151.533,133.823,151.533,131.144Zm3.309,0c0,4.8-3.1,7.321-6.725,7.321a6.168,6.168,0,0,1-4.156-1.539v5.606h-3.282V124.087h3.282v1.539a6.178,6.178,0,0,1,4.394-1.8C151.9,123.822,154.842,126.342,154.842,131.144Z" transform="translate(-61.173 -48.906)"/>
    <path id="path10" d="M198.073,129.552a2.879,2.879,0,0,0-3.1-3.051A4.035,4.035,0,0,0,191,129.95h7.015A1.8,1.8,0,0,0,198.073,129.552Zm2.806,2.652h-9.927a3.928,3.928,0,0,0,4.21,3.4,8.754,8.754,0,0,0,4.765-1.326l.185,2.892a10.388,10.388,0,0,1-5.188,1.3c-4.024,0-7.334-2.52-7.334-7.268a7.176,7.176,0,0,1,7.307-7.375c4.13,0,6.274,2.493,6.274,6.128A8.5,8.5,0,0,1,200.879,132.2Z" transform="translate(-92.171 -48.906)"/>
    <path id="path12" d="M273.059,136.98l.344-3.183a7.889,7.889,0,0,0,5.109,1.8c1.377,0,2.33-.583,2.33-1.565,0-2.626-7.572-1.274-7.572-6,0-2.838,2.436-4.218,5.348-4.218a8.863,8.863,0,0,1,4.792,1.247l-.159,2.944a8.4,8.4,0,0,0-4.607-1.432c-1.165,0-2.118.451-2.118,1.353,0,2.2,7.6,1.141,7.6,5.995,0,3-2.621,4.536-5.666,4.536A9.52,9.52,0,0,1,273.059,136.98Z" transform="translate(-148.65 -48.906)"/>
    <path id="path14" d="M320,134.38v-2.122a11.517,11.517,0,0,0-3.469-.61c-1.694,0-2.7.876-2.7,2.149,0,1.3,1.112,2.123,2.568,2.123A4.974,4.974,0,0,0,320,134.38Zm3.256-4.934V138.2H320v-1.432a6.069,6.069,0,0,1-4.236,1.7c-3.15,0-5.082-1.91-5.082-4.563,0-2.838,2.2-4.562,5.479-4.562a12.912,12.912,0,0,1,3.839.636v-.424c0-2.149-1.615-3.1-3.627-3.1a7.411,7.411,0,0,0-4.448,1.539l-.132-2.865a9.879,9.879,0,0,1,5.162-1.3C320.611,123.822,323.258,125.52,323.258,129.446Z" transform="translate(-173.513 -48.906)"/>
    <path id="path16" d="M348.616,124.6h3.569l4.045,8.913,4.019-8.913h3.569l-6.689,14.113H355.3Z" transform="translate(-198.579 -49.423)"/>
    <path id="path18" d="M402.6,129.552a2.879,2.879,0,0,0-3.1-3.051,4.036,4.036,0,0,0-3.971,3.449h7.016A1.871,1.871,0,0,0,402.6,129.552Zm2.806,2.652h-9.927a3.927,3.927,0,0,0,4.209,3.4,8.756,8.756,0,0,0,4.765-1.326l.185,2.892a10.383,10.383,0,0,1-5.188,1.3c-4.024,0-7.333-2.52-7.333-7.268a7.175,7.175,0,0,1,7.306-7.375c4.13,0,6.275,2.493,6.275,6.128A8.5,8.5,0,0,1,405.408,132.2Z" transform="translate(-227.326 -48.906)"/>
    <path id="path20" d="M448.55,124.432l-.45,3.024a4.769,4.769,0,0,0-2.356-.583,4.332,4.332,0,0,0-3.733,2.281V138.2h-3.283V124.087h3.283V126a5.026,5.026,0,0,1,6.539-1.565Z" transform="translate(-258.125 -48.906)"/>
    <path id="path22" d="M470.47,136.98l.343-3.183a7.892,7.892,0,0,0,5.11,1.8c1.376,0,2.329-.583,2.329-1.565,0-2.626-7.57-1.274-7.57-6,0-2.838,2.435-4.218,5.347-4.218a8.864,8.864,0,0,1,4.792,1.247l-.159,2.944a8.4,8.4,0,0,0-4.606-1.432c-1.165,0-2.118.451-2.118,1.353,0,2.2,7.6,1.141,7.6,5.995,0,3-2.621,4.536-5.665,4.536A9.515,9.515,0,0,1,470.47,136.98Z" transform="translate(-279.1 -48.906)"/>
    <path id="path24" d="M244.042,134.335a6.007,6.007,0,0,1-3.635,1.264,4.461,4.461,0,0,1,0-8.913,6.116,6.116,0,0,1,3.637,1.245,22.661,22.661,0,0,1,.63-2.916,8.7,8.7,0,0,0-4.611-1.195,7.322,7.322,0,0,0,0,14.644,8.226,8.226,0,0,0,4.588-1.284,22.678,22.678,0,0,1-.61-2.845Z" transform="translate(-122.036 -48.905)"/>
  </g>
</svg>
