<svg id="Group_1441" data-name="Group 1441" xmlns="http://www.w3.org/2000/svg" width="111.656" height="44.961" viewBox="0 0 111.656 44.961">
  <path id="Path_7" data-name="Path 7" d="M373.656,451.851V406.89H262v44.961Zm-66.765-40.623-7.707,36.19h-12.1l-7.606-25.041h-.1l-5.06,25.041h-9.173l7.771-36.19h12.136l7.455,25.1h.1l5.106-25.1Zm34.6,0-7.558,36.19H324.19l3.231-15.5H315.9l-3.231,15.5h-9.742l7.558-36.19h9.741l-2.862,13.846h11.516l2.868-13.846Zm27.985.987-2.349,7.206a18.4,18.4,0,0,0-8.023-1.654c-3.853,0-6.982.565-6.982,3.472,0,5.13,14.123,3.215,14.123,14.207,0,10-9.33,12.6-17.771,12.6a40.816,40.816,0,0,1-11.254-1.872l2.294-7.363c1.924,1.247,5.785,2.078,8.96,2.078,3.026,0,7.763-.573,7.763-4.3,0-5.808-14.122-3.631-14.122-13.839,0-9.336,8.235-12.136,16.209-12.136,4.484,0,8.7.469,11.152,1.607Z" transform="translate(-262 -406.89)" fill="#fff"/>
</svg>
