<svg id="Group_1450" data-name="Group 1450" xmlns="http://www.w3.org/2000/svg" width="76.241" height="70.523" viewBox="0 0 76.241 70.523">
  <path id="Path_45" data-name="Path 45" d="M305.515,467.382H286.17l-1.792-14.338-11.734-8.534a38.12,38.12,0,1,1,74.7,0l-11.733,8.534-1.792,14.338H314.475l-1.116.811a5.715,5.715,0,0,1-6.727,0Z" transform="translate(-271.875 -398.765)" fill="#fff"/>
  <path id="Path_46" data-name="Path 46" d="M303.825,458.283H289.763l-1.42-11.362L276.762,438.5a16.195,16.195,0,0,1,.9-10.645l20.506,20.734-19.935-24.611a16.193,16.193,0,0,1,4.979-8.251l17.869,30.842L285.242,412.8a16.21,16.21,0,0,1,8.162-5.742l10.927,38.285-7.984-39.863a16.22,16.22,0,0,1,9.725-1.993l1.627,41.454,1.627-41.454a16.22,16.22,0,0,1,9.725,1.993l-7.984,39.863,10.927-38.285a16.21,16.21,0,0,1,8.162,5.742l-15.834,33.767,17.869-30.842a16.193,16.193,0,0,1,4.979,8.251l-19.935,24.611,20.506-20.734a16.195,16.195,0,0,1,.9,10.645l-11.581,8.425-1.42,11.362H311.574l-2.081,1.512a3.045,3.045,0,0,1-3.586,0Z" transform="translate(-269.579 -396.337)"/>
</svg>
