<svg id="Canon_wordmark" xmlns="http://www.w3.org/2000/svg" width="130.742" height="27.345" viewBox="0 0 130.742 27.345">
  <path id="C" d="M21.347,24.682A11.007,11.007,0,1,1,27.18,4.339l-5.833,9.334,10.981-6.34a14.868,14.868,0,0,0-4.973-4.782A20.494,20.494,0,0,0,17.01,0C11.233,0,6.165,2.1,3.338,5.243A12.543,12.543,0,0,0,0,13.674,12.557,12.557,0,0,0,3.338,22.11c2.834,3.148,7.826,5.235,13.508,5.235s10.672-2.089,13.507-5.235c.155-.173.306-.348.448-.53l-.428-1.6a11,11,0,0,1-9.026,4.707" fill="#fff"/>
  <path id="a" d="M219.963,50.588,215.355,33.4a6.5,6.5,0,0,0-8.506-4.428l-9.922,3.608h10.2l1.744,6.512a9.637,9.637,0,0,0-6.307-2.342c-4.79,0-8.668,3.21-8.668,7.169s3.878,7.174,8.668,7.174a10.328,10.328,0,0,0,8.379-4.282l1.012,3.78h8m-14.058-2.67a4,4,0,1,1,4-4A4,4,0,0,1,205.905,47.917Z" transform="translate(-162.211 -23.905)" fill="#fff"/>
  <path id="n1" d="M358.426,28.593a3.958,3.958,0,0,0-1.687.373l-6.37,2.969a4.009,4.009,0,0,0-5.642-2.969L336.95,32.59h5.468V50.6h8V34.594a2,2,0,1,1,4,0V50.6h8V32.59a4,4,0,0,0-4-4" transform="translate(-281.883 -23.92)" fill="#fff"/>
  <path id="o" d="M535.936,39.929A11.338,11.338,0,1,1,524.6,28.593a11.334,11.334,0,0,1,11.334,11.336m-10.865-7.9a2.5,2.5,0,0,0-4.831,1.3l3.888,14.5a2.5,2.5,0,1,0,4.829-1.293Z" transform="translate(-429.379 -23.92)" fill="#fff"/>
  <path id="n2" d="M665.569,28.593a4.04,4.04,0,0,0-1.7.373l-6.364,2.969a4.009,4.009,0,0,0-5.642-2.969L644.09,32.59h5.467V50.6h8V34.594a2,2,0,1,1,4,0V50.6h8.008V32.59a4,4,0,0,0-4-4" transform="translate(-538.828 -23.92)" fill="#fff"/>
</svg>
