<svg xmlns="http://www.w3.org/2000/svg" width="79.057" height="79.058" viewBox="0 0 79.057 79.058">
  <g id="Group_1458" data-name="Group 1458" transform="translate(84.503 -245.092)">
    <path id="Path_113" data-name="Path 113" d="M-5.446,284.623a39.6,39.6,0,0,0-39.526-39.531A39.525,39.525,0,0,0-84.5,284.623a39.524,39.524,0,0,0,39.531,39.526A39.523,39.523,0,0,0-5.446,284.623Zm-51.293,34.939c.029-.076.119-.135.171-.112a28.893,28.893,0,0,0,8.837,1.372c5.054,0,8.045-2.067,8.045-4.6a2.845,2.845,0,0,0-2.817-2.872h-.055c-3.1,0-3.339,3.906-10,3.906a27.379,27.379,0,0,1-8.387-1.5C-75.2,311.4-81.985,297.954-81.98,284.625a38.343,38.343,0,0,1,1.856-11.716.182.182,0,0,1,.205-.034.153.153,0,0,1,.119.147,30.415,30.415,0,0,0-1.372,8.844c0,5.06,2.068,8.045,4.711,8.045a2.72,2.72,0,0,0,2.755-2.684q0-.036,0-.071c0-3.107-3.795-3.451-3.795-10.117a27.586,27.586,0,0,1,1.5-8.388c4.369-14.251,17.817-20.929,31.033-21.032a34.635,34.635,0,0,1,11.721,1.956.182.182,0,0,1,.036.2c-.049.112-.12.124-.154.117a25.648,25.648,0,0,0-8.849-1.466c-4.941-.005-8.045,2.064-8.045,4.711a2.753,2.753,0,0,0,2.872,2.755c3.1,0,3.334-3.79,10-3.79a27.369,27.369,0,0,1,8.382,1.49c14.369,4.367,20.907,17.927,21.03,31.031a35.983,35.983,0,0,1-1.842,11.829h0c-.017.036-.081.083-.212.041-.1-.036-.124-.083-.124-.149A31.489,31.489,0,0,0-8.78,287.5c-.012-5.066-2.067-8.17-4.7-8.17a2.691,2.691,0,0,0-2.762,2.88c0,3.1,3.79,3.334,3.79,10.112a26.918,26.918,0,0,1-1.488,8.27c-4.257,14.362-17.817,21.03-31.026,21.03a32.85,32.85,0,0,1-11.709-1.83A.193.193,0,0,1-56.738,319.562Z" fill="#fff"/>
    <path id="Path_114" data-name="Path 114" d="M59.871,379.624c0-4.707-2.645-9.071-7.7-9.071a6.59,6.59,0,0,0-6.892,6.319c0,2.873,1.727,5.171,4.018,5.171a1.475,1.475,0,0,0,1.614-1.488c0-1.5-1.981-1.863-1.832-4.1A2.8,2.8,0,0,1,51.941,374c2.755,0,4.044,2.67,4.044,5.425a7.058,7.058,0,0,1-6.915,7.21c-4.829,0-7.931-4.592-7.931-9.535,0-7.359,4.829-10.231,7.359-10.917.024,0,6.607,1.17,6.4-1.732-.095-1.277-1.993-1.768-3.365-1.82a9.419,9.419,0,0,0-3.067.489,3.766,3.766,0,0,1-1.7-2.115c4.712-3.566,8.045-7.01,8.045-10.918a3.77,3.77,0,0,0-4.025-3.906c-4.712,0-8.275,5.976-8.275,11.377a9.561,9.561,0,0,0,.237,2.642c-2.99,2.181-5.214,3.541-9.232,5.954a20.524,20.524,0,0,1,.444-3.481c1.377-1.5,3.268-3.735,3.268-5.461a1.358,1.358,0,0,0-1.383-1.5c-2.294,0-4.015,3.451-4.475,5.864-1.035,1.27-3.1,2.879-4.831,2.879a2.093,2.093,0,0,1-1.956-1.727c4.369-1.5,9.77-7.471,9.77-12.872,0-1.146-.461-3.678-3.906-3.678-5.171,0-9.533,7.7-9.533,13.671-1.844,0-2.53-1.951-2.53-3.446a22.889,22.889,0,0,1,.574-3.448.928.928,0,0,0-.923-1.033c-1.72,0-2.755,2.3-2.755,4.941a6.024,6.024,0,0,0,5.745,6.208,5.255,5.255,0,0,0,4.822,4.255,7.041,7.041,0,0,0,4.6-1.607c-.112.8-.224,1.5-.342,2.181-5.06,2.648-8.737,4.486-12.07,7.472-2.636,2.416-4.132,5.632-4.132,8.156a6.319,6.319,0,0,0,6.661,6.668c5.283,0,9.31-4.25,11.265-10.114a46.058,46.058,0,0,0,1.519-10.451A106.993,106.993,0,0,0,43.9,362.964a4.626,4.626,0,0,0,1.146,1.377,14.335,14.335,0,0,0-8.157,13.216c0,5.976,4.018,12.644,11.953,12.644A10.944,10.944,0,0,0,59.871,379.624Zm-35.51-20.113h0c0-3.793,3.742-11,6.028-10.238,2.7.9-2.238,8.17-6.028,10.238h0Zm-3.795,27.126h0a2.611,2.611,0,0,1-2.872-2.86c0-4.936,6.849-9.652,12.022-12.183C28.8,378.486,26.471,386.372,20.567,386.638Zm25.511-28.845c0-4.717,3.194-9.293,4.936-8.431,1.986,1-1.488,5.439-4.936,8.431Z" transform="translate(-81.746 -83.973)" fill="#fff"/>
  </g>
</svg>
