<svg xmlns="http://www.w3.org/2000/svg" xmlns:xlink="http://www.w3.org/1999/xlink" width="168.315" height="65.3" viewBox="0 0 168.315 65.3">
  <defs>
    <clipPath id="clip-path">
      <path id="Path_18" data-name="Path 18" d="M267.136,112.65s-5.764,1.933-8.821,4.612a11.3,11.3,0,0,0-3.876,6.3,31.825,31.825,0,0,1,4.423-1.931l20.72-6.765s.806,15.749-8.459,22.677a31.446,31.446,0,0,0,9.354-3.7c13.683-7.779,12.559-29.648,12.559-29.648Z" transform="translate(-254.439 -104.195)" fill="#fff"/>
    </clipPath>
    <clipPath id="clip-path-2">
      <path id="Path_19" data-name="Path 19" d="M251.732,125.561a9.067,9.067,0,0,0-3.319,7.062c0,5.22,4.635,9.452,10.354,9.452h0c2.8.076,6.316-.761,10.7-3.252a15.484,15.484,0,0,0,1.588-1.042,18.254,18.254,0,0,1-4.015.363v0c-7.149,0-12.944-5.289-12.944-11.815a11.682,11.682,0,0,1,.275-2.525,14.626,14.626,0,0,0-2.635,1.761" transform="translate(-248.413 -123.8)" fill="#fff"/>
    </clipPath>
  </defs>
  <g id="Group_1447" data-name="Group 1447" transform="translate(0)">
    <g id="Group_1442" data-name="Group 1442" transform="translate(0 41.289)">
      <path id="Path_8" data-name="Path 8" d="M155.763,151.314H160v-4.167c-2.085-.242-4.238.349-4.238,2.675Z" transform="translate(-123.565 -145.997)" fill="#fff"/>
      <path id="Path_9" data-name="Path 9" d="M150.278,152.666c-4.481.1-6.738,1.563-6.738,6.078v11.079h4.237V158.744c0-2.118.8-2.432,2.432-2.5,1.041-.069,1.408.139,2.346-.382.869-.452,1.215-1.529,1.181-3.056-1.147-.07-2.069-.174-3.457-.139" transform="translate(-123.419 -146.063)" fill="#fff"/>
      <path id="Path_10" data-name="Path 10" d="M127.552,156.275v-6.114h5.453c2.432,0,3.056.87,3.056,3.022,0,2.188-.695,3.092-3.056,3.092Zm13.477,6.806c0-3.682-1.6-4.965-3.716-5.417,1.772-.765,3.091-1.842,3.091-5.037,0-4.479-2.119-6.077-6.494-6.077H123.176v23.2h11.185c4.2,0,6.668-1.667,6.668-6.669m-13.477-3.3h6.078c2.361,0,3.021.905,3.021,3.126,0,2.261-.728,3.231-3.021,3.231h-6.078Z" transform="translate(-123.176 -145.99)" fill="#fff"/>
      <path id="Path_11" data-name="Path 11" d="M178.168,151.314H182.4v-4.167c-2.083-.242-4.237.349-4.237,2.675Z" transform="translate(-123.833 -145.997)" fill="#fff"/>
      <rect id="Rectangle_629" data-name="Rectangle 629" width="4.273" height="16.949" transform="translate(54.299 6.811)" fill="#fff"/>
      <path id="Path_12" data-name="Path 12" d="M212.375,152.586c-2.258,0-5.105,1.146-6.877,1.911v-8.463c-2.085-.243-4.239.347-4.239,2.675v21.035H205.5V157.935a18.612,18.612,0,0,1,5.557-1.459,1.808,1.808,0,0,1,1.98,1.911v11.357h4.239v-11.5c0-3.682-1.321-5.663-4.9-5.663" transform="translate(-124.109 -145.984)" fill="#fff"/>
      <rect id="Rectangle_630" data-name="Rectangle 630" width="4.238" height="16.949" transform="translate(32.197 6.811)" fill="#fff"/>
      <path id="Path_13" data-name="Path 13" d="M169.653,156.177h3.021c2.223,0,3.057-1.007,2.85-3.369h-5.871v-5.661c-2.084-.243-4.238.349-4.238,2.675v2.986h-3.161v3.369h3.161v7.675c0,4.238,1.737,6.079,6.149,6.079a27.088,27.088,0,0,0,3.577-.243l-.1-3.369c-.8.071-1.981.138-2.952.138-1.633,0-2.432-.555-2.432-2.359Z" transform="translate(-123.643 -145.997)" fill="#fff"/>
      <path id="Path_14" data-name="Path 14" d="M189.01,157.564c0-1.077.834-1.458,1.876-1.458,1.772,0,3.4.069,4.446.1,1.91.069,2.848-.972,2.743-3.2-1.284-.139-4.237-.348-6.668-.348-3.785,0-6.565,1.426-6.565,4.932,0,3.646,2.049,4.62,5.8,5.244,3.4.555,4.1.8,4.1,1.98,0,1.426-1.6,1.634-3.126,1.634-2.258,0-4.654-.141-6.148-.278l-.208,3.541c1.6.14,3.959.278,6.53.278,4.377,0,7.12-1.355,7.12-5,0-3.507-1.841-4.549-5.522-5.244-3.4-.591-4.377-.834-4.377-2.189" transform="translate(-123.913 -146.064)" fill="#fff"/>
      <path id="Path_15" data-name="Path 15" d="M246.04,156.342h-8.755c-.208,2.535.626,3.612,2.85,3.612h1.528v5.8a51.2,51.2,0,0,1-5.174.382c-3.473,0-4.828-1.355-4.828-8.2,0-6.635,1.007-8.2,6.494-7.779l3.752.276c2.5.141,3.437-1.214,3.4-3.332a75.282,75.282,0,0,0-8.092-.766c-7.988,0-10.108,2.293-10.108,11.7,0,9.169,2.572,11.878,9.239,11.878a60.535,60.535,0,0,0,9.692-1.042Z" transform="translate(-124.418 -145.988)" fill="#fff"/>
      <path id="Path_16" data-name="Path 16" d="M270.686,157.564c0-1.077.834-1.458,1.875-1.458,1.772,0,3.4.069,4.446.1,1.91.069,2.848-.972,2.743-3.2-1.284-.139-4.237-.348-6.668-.348-3.786,0-6.565,1.426-6.565,4.932,0,3.646,2.049,4.62,5.8,5.244,3.4.555,4.1.8,4.1,1.98,0,1.426-1.6,1.634-3.127,1.634-2.257,0-4.653-.141-6.147-.278l-.208,3.541c1.6.14,3.959.278,6.53.278,4.376,0,7.121-1.355,7.121-5,0-3.507-1.842-4.549-5.523-5.244-3.4-.591-4.376-.834-4.376-2.189" transform="translate(-124.889 -146.064)" fill="#fff"/>
      <path id="Path_17" data-name="Path 17" d="M263.948,158.152c0-3.5-1.422-5.375-5.754-5.375-2.7,0-6.241.313-7.836.487-.034,2.112.554,3.187,2.393,3.187,1.247,0,3.674-.139,5.1-.139,1.249,0,1.87.453,1.87,1.907v.625c-1.906.1-3.639.312-5.235.553-3.743.556-5.926,1.631-5.926,5.338,0,3.329,1.663,5.339,5.233,5.339a95.232,95.232,0,0,0,10.159-.553Zm-4.231,8.528a50.3,50.3,0,0,1-5.062.208c-1.7,0-1.975-1.112-1.975-2.115,0-1.561.728-1.976,2.461-2.288a35.538,35.538,0,0,1,4.576-.554Z" transform="translate(-124.674 -146.065)" fill="#fff"/>
    </g>
    <g id="Group_1444" data-name="Group 1444" transform="translate(129.695 0)">
      <g id="Group_1443" data-name="Group 1443" clip-path="url(#clip-path)">
        <rect id="Rectangle_631" data-name="Rectangle 631" width="50.094" height="47.014" transform="matrix(0.906, -0.423, 0.423, 0.906, -12.774, 5.956)" fill="#fff"/>
      </g>
    </g>
    <g id="Group_1446" data-name="Group 1446" transform="translate(123.741 19.371)">
      <g id="Group_1445" data-name="Group 1445" clip-path="url(#clip-path-2)">
        <rect id="Rectangle_632" data-name="Rectangle 632" width="27.212" height="28.782" transform="matrix(0.5, -0.866, 0.866, 0.5, -7.946, 13.763)" fill="#fff"/>
      </g>
    </g>
  </g>
</svg>
