<svg id="Group_1448" data-name="Group 1448" xmlns="http://www.w3.org/2000/svg" width="137.656" height="91.941" viewBox="0 0 137.656 91.941">
  <path id="Path_22" data-name="Path 22" d="M288.735,353.12a24.861,24.861,0,0,0-19.769,39.937L289.634,365.9l-2.222,0H285.2a34.155,34.155,0,0,0-6.165.477,6.629,6.629,0,0,0-2.534,1.033,9.949,9.949,0,0,0-2.531,3.01q-.117.211-.336.64l-1.21-.267,2.026-7.8h25.888l-20.568,27.5a27.6,27.6,0,0,1,2.953-.143q1.253,0,3.8.152l3.655.217c1.32.079,2.432.118,3.274.118a14.1,14.1,0,0,0,4.329-.516,9.663,9.663,0,0,0,2.662-1.288,12.34,12.34,0,0,0,3.687-4.2c.085-.161.217-.408.373-.738l1.095.283a15.652,15.652,0,0,1-1.09,3.1,12.745,12.745,0,0,1-4.068,5.393,10,10,0,0,1-6.022,1.981l-.35,0a43.6,43.6,0,0,1-7.122-.77,53.74,53.74,0,0,0-8.373-.854,24.957,24.957,0,0,0-4.051.321,12.889,12.889,0,0,0-4.107,1.238,24.861,24.861,0,1,0,18.321-41.666Z" transform="translate(-218.962 -353.12)" fill="#fff" fill-rule="evenodd"/>
  <path id="Path_23" data-name="Path 23" d="M225.711,444.116H206.677l-2.338,5.165a14.408,14.408,0,0,1,1.773-.834,17.564,17.564,0,0,1,3.421-.968,22.389,22.389,0,0,1,3.412-.3q1-.028,1.878-.028h2.818l-14.806,21.16h20.93l2.415-5.52a17.076,17.076,0,0,1-1.783.929,16.493,16.493,0,0,1-3.91,1.2,25.616,25.616,0,0,1-3.8.335q-.757.019-1.936.019h-3.708l14.672-21.16Z" transform="translate(-202.835 -377.162)" fill="#fff" fill-rule="evenodd"/>
  <path id="Path_24" data-name="Path 24" d="M316.652,468.314a3.273,3.273,0,0,1-.748-.853,3.974,3.974,0,0,1-.373-.738,6.508,6.508,0,0,1-.336-2.128V450.019l.01-1.419a8.218,8.218,0,0,1,.258-2.722,3.441,3.441,0,0,1,.345-.757,3.4,3.4,0,0,1,.911-1.006h-7.772a4.024,4.024,0,0,1,.9.958,3.077,3.077,0,0,1,.374.786,8.719,8.719,0,0,1,.249,2.607q.009,1.1.01,1.456v14.491a6.846,6.846,0,0,1-.383,2.338,3.581,3.581,0,0,1-.384.709,5.9,5.9,0,0,1-.737.853Z" transform="translate(-230.871 -377.162)" fill="#fff" fill-rule="evenodd"/>
  <path id="Path_25" data-name="Path 25" d="M345.067,444.119a11.566,11.566,0,0,0-1.476-.393,19.9,19.9,0,0,0-4.254-.431,17.412,17.412,0,0,0-6.9,1.284,13.922,13.922,0,0,0-3.325,1.974,12.362,12.362,0,0,0-4.6,9.891,11.778,11.778,0,0,0,4.42,9.506,14.2,14.2,0,0,0,9.042,2.8,22.061,22.061,0,0,0,6.79-1.085l.393-.125v-4.4c-.578.388-.777.514-1.131.719a13.1,13.1,0,0,1-1.486.738,10.487,10.487,0,0,1-4.223.9,8.224,8.224,0,0,1-6.233-2.607,9.717,9.717,0,0,1-2.415-6.7,10.1,10.1,0,0,1,2.185-6.531,8.023,8.023,0,0,1,2.195-1.792,9.489,9.489,0,0,1,4.68-1.16,11.363,11.363,0,0,1,4.348.873,7.881,7.881,0,0,1,1.993,1.093v-4.552Z" transform="translate(-234.982 -376.945)" fill="#fff" fill-rule="evenodd"/>
  <path id="Path_26" data-name="Path 26" d="M375.143,457.332v5.9a17.337,17.337,0,0,1-.106,2.463,4.4,4.4,0,0,1-.258,1.045,3.544,3.544,0,0,1-.873,1.265q-.108.106-.336.307H381.3a4.863,4.863,0,0,1-.652-.748,4.035,4.035,0,0,1-.45-.8,5.281,5.281,0,0,1-.316-2.185q-.02-1.073-.019-1.256l.019-13.311v-1.438a9.9,9.9,0,0,1,.268-2.558,3.469,3.469,0,0,1,.383-.892,3.233,3.233,0,0,1,.959-1.015h-7.9a3.4,3.4,0,0,1,.881.987,3.941,3.941,0,0,1,.4.843,8.175,8.175,0,0,1,.259,2.54v5.884H364.295v-4.418c0-1.336.02-2.213.067-2.866a4.421,4.421,0,0,1,.191-1.054,5.07,5.07,0,0,1,1.007-1.658c.057-.06.146-.146.269-.258h-7.754a5.961,5.961,0,0,1,.8.929,3.512,3.512,0,0,1,.412.824,6.911,6.911,0,0,1,.269,2.559l.018,1.533v13.244a20.5,20.5,0,0,1-.095,2.549,4.143,4.143,0,0,1-.24.959,3.468,3.468,0,0,1-.93,1.36c-.058.055-.148.135-.268.24h7.657a4.214,4.214,0,0,1-.642-.8,4.561,4.561,0,0,1-.383-.757,5.293,5.293,0,0,1-.355-2.118q-.02-.772-.019-1.447v-5.865Z" transform="translate(-243.841 -377.162)" fill="#fff" fill-rule="evenodd"/>
  <path id="Path_27" data-name="Path 27" d="M238.4,444.116a3.064,3.064,0,0,1,.881.977,3.188,3.188,0,0,1,.346.844,5.235,5.235,0,0,1,.153,1.111q.011.4.019,1.5l.01,1.4v6.919c0,2.444.019,3.285.1,4.265a7.874,7.874,0,0,0,1.7,4.447,8.916,8.916,0,0,0,4.083,2.837,13.18,13.18,0,0,0,4.413.684,14.735,14.735,0,0,0,4.9-.761,9.34,9.34,0,0,0,3.6-2.415,8.016,8.016,0,0,0,1.955-4.686,37.648,37.648,0,0,0,.163-4.332v-6.957l-.01-1.371v-.193a9.4,9.4,0,0,1,.22-2.4,3.131,3.131,0,0,1,1.085-1.664c.153-.119.2-.153.277-.211h-7.167a3.473,3.473,0,0,1,.527,1.054,5.009,5.009,0,0,1,.2.91,32.614,32.614,0,0,1,.153,4.015v7.513a26.345,26.345,0,0,1-.2,4.1,4.848,4.848,0,0,1-.623,1.763,4.739,4.739,0,0,1-2.98,2.08,7.22,7.22,0,0,1-1.717.193,6.645,6.645,0,0,1-3.286-.787,4.144,4.144,0,0,1-1.437-1.255c-.664-.968-.858-1.945-.881-4.427l-.029-3.048V450.1a32.523,32.523,0,0,1,.153-4.015,4.575,4.575,0,0,1,.594-1.745c.029-.049.074-.123.135-.22Z" transform="translate(-212.233 -377.162)" fill="#fff" fill-rule="evenodd"/>
  <path id="Path_28" data-name="Path 28" d="M282.49,463.34q0,.663.01,1.217a5.986,5.986,0,0,0,.316,2.233,3.4,3.4,0,0,0,.412.738,6.308,6.308,0,0,0,.67.786H276.2a5.317,5.317,0,0,0,.8-.843,3.065,3.065,0,0,0,.422-.767,6.642,6.642,0,0,0,.278-2.338v-15.88a9.041,9.041,0,0,0-.24-2.578,3.521,3.521,0,0,0-.422-.881,4.032,4.032,0,0,0-.815-.91h6.248q1.157,0,2.243.029a19.575,19.575,0,0,1,4.14.422,7.978,7.978,0,0,1,3.93,2.175,5.635,5.635,0,0,1,1.639,3.973,6.041,6.041,0,0,1-.3,1.864,5.813,5.813,0,0,1-1.907,2.759,10.431,10.431,0,0,1-2.981,1.725,10.748,10.748,0,0,1-1.073.374l3.756,4.418q.684.8,1.764,1.973c1.132,1.228,1.888,2,2.741,2.808q.552.521,1.044.948c.313.272.474.4.882.728h-3.038q-.673,0-1.255-.019a4.965,4.965,0,0,1-2.406-.566,10.528,10.528,0,0,1-2.5-1.983q-.4-.415-1.179-1.3-.686-.786-1.007-1.169L282.49,457.9v5.443Zm.392-7.472a8.9,8.9,0,0,0,1.266-.109,7.809,7.809,0,0,0,3.048-.987,4.709,4.709,0,0,0,1.131-.91,4,4,0,0,0,.94-2.728,3.729,3.729,0,0,0-1.247-2.975,4.415,4.415,0,0,0-1.639-.872,12.213,12.213,0,0,0-3.261-.406c-.2,0-.326,0-.63.013v8.961c.189.01.271.013.392.013Z" transform="translate(-222.219 -377.162)" fill="#fff" fill-rule="evenodd"/>
</svg>
