<svg xmlns="http://www.w3.org/2000/svg" width="226.44" height="41.411" viewBox="0 0 226.44 41.411">
  <g id="Scottish_Government_Logo" transform="translate(0.001)">
    <g id="Group_1454" data-name="Group 1454" transform="translate(-0.001 0)">
      <path id="Path_64" data-name="Path 64" d="M35.208,18.344,59.626,4H10.9Z" transform="translate(-3.345 -4)" fill="#fff"/>
      <path id="Path_65" data-name="Path 65" d="M35.208,25.8,10.9,40.144H59.626Z" transform="translate(-3.345 -1.93)" fill="#fff"/>
      <path id="Path_66" data-name="Path 66" d="M28.089,22.682,4,7.9V37.464Z" transform="translate(-4 -3.63)" fill="#fff"/>
      <path id="Path_67" data-name="Path 67" d="M40.7,22.682,64.789,37.464V7.9Z" transform="translate(-0.515 -3.63)" fill="#fff"/>
    </g>
    <rect id="Rectangle_634" data-name="Rectangle 634" width="1.095" height="38.105" transform="translate(71.063 0)" fill="#fff"/>
    <g id="Group_1455" data-name="Group 1455" transform="translate(78.618 0.547)">
      <path id="Path_68" data-name="Path 68" d="M75.8,13.7l1.095-1.423A4.4,4.4,0,0,0,80.18,13.7c1.533,0,2.08-.766,2.08-1.423,0-2.19-6.132-.876-6.132-4.708,0-1.752,1.533-3.066,3.832-3.066A5.363,5.363,0,0,1,83.9,6.033L82.808,7.456a4.143,4.143,0,0,0-3.066-1.314c-1.095,0-1.752.547-1.752,1.314,0,1.971,6.132.766,6.132,4.708,0,1.752-1.2,3.285-4.051,3.285A5.547,5.547,0,0,1,75.8,13.7Z" transform="translate(-75.8 -4.5)" fill="#fff"/>
      <path id="Path_69" data-name="Path 69" d="M84.5,11.151A3.885,3.885,0,0,1,88.442,7.1,3.607,3.607,0,0,1,91.4,8.414L90.3,9.4a2.128,2.128,0,0,0-1.752-.876,2.3,2.3,0,0,0-2.3,2.518,2.369,2.369,0,0,0,2.3,2.518,2.128,2.128,0,0,0,1.752-.876l1.095.985a3.956,3.956,0,0,1-6.9-2.518Z" transform="translate(-74.974 -4.253)" fill="#fff"/>
      <path id="Path_70" data-name="Path 70" d="M91.7,11.151A3.883,3.883,0,0,1,95.642,7.1a3.823,3.823,0,0,1,3.942,4.051A3.883,3.883,0,0,1,95.642,15.2,3.82,3.82,0,0,1,91.7,11.151Zm6.132,0a2.211,2.211,0,1,0-4.38,0,2.211,2.211,0,1,0,4.38,0Z" transform="translate(-74.29 -4.253)" fill="#fff"/>
      <path id="Path_71" data-name="Path 71" d="M100.814,13.393V9.013H99.5V7.48h1.314V5.4h1.642V7.48h1.533V8.9h-1.533v4.051c0,.547.219.876.766.876a.994.994,0,0,0,.766-.328l.438,1.314a2.552,2.552,0,0,1-1.533.438A1.707,1.707,0,0,1,100.814,13.393Z" transform="translate(-73.549 -4.415)" fill="#fff"/>
      <path id="Path_72" data-name="Path 72" d="M105.414,13.393V9.013H104.1V7.48h1.314V5.4h1.642V7.48h1.533V8.9h-1.533v4.051c0,.547.219.876.766.876a.994.994,0,0,0,.766-.328l.438,1.314a2.552,2.552,0,0,1-1.533.438A1.707,1.707,0,0,1,105.414,13.393Z" transform="translate(-73.112 -4.415)" fill="#fff"/>
      <path id="Path_73" data-name="Path 73" d="M109.4,5.585a.985.985,0,1,1,.985.985A.919.919,0,0,1,109.4,5.585Zm.219,9.636V7.556h1.642v7.665Z" transform="translate(-72.609 -4.491)" fill="#fff"/>
      <path id="Path_74" data-name="Path 74" d="M112.5,13.989l.766-1.2a4.126,4.126,0,0,0,2.628,1.095c.985,0,1.533-.438,1.533-.985,0-1.533-4.6-.438-4.6-3.394,0-1.2,1.095-2.3,2.956-2.3a4.052,4.052,0,0,1,2.956,1.095l-.657,1.2a2.965,2.965,0,0,0-2.3-.876c-.876,0-1.423.438-1.423.985,0,1.314,4.6.328,4.6,3.394,0,1.314-1.095,2.409-3.175,2.409A6.048,6.048,0,0,1,112.5,13.989Z" transform="translate(-72.315 -4.244)" fill="#fff"/>
      <path id="Path_75" data-name="Path 75" d="M125.046,15.212V10.394c0-1.2-.547-1.533-1.533-1.533a2.853,2.853,0,0,0-1.971.985v5.365H119.9V4.7h1.642V8.642a4,4,0,0,1,2.737-1.2A2.225,2.225,0,0,1,126.8,9.846v5.365h-1.752Z" transform="translate(-71.612 -4.481)" fill="#fff"/>
      <path id="Path_76" data-name="Path 76" d="M131.4,9.975A5.38,5.38,0,0,1,136.984,4.5a5.011,5.011,0,0,1,4.27,2.19l-1.533.876a3.4,3.4,0,0,0-2.737-1.423,3.569,3.569,0,0,0-3.613,3.832,3.631,3.631,0,0,0,3.613,3.832,3.083,3.083,0,0,0,3.066-2.628h-3.723V9.537h5.8c0,3.613-1.971,5.913-5.256,5.913A5.354,5.354,0,0,1,131.4,9.975Z" transform="translate(-70.52 -4.5)" fill="#fff"/>
      <path id="Path_77" data-name="Path 77" d="M141.7,11.151A3.883,3.883,0,0,1,145.642,7.1a3.823,3.823,0,0,1,3.942,4.051,3.943,3.943,0,1,1-7.884,0Zm6.132,0a2.211,2.211,0,1,0-4.38,0,2.211,2.211,0,1,0,4.38,0Z" transform="translate(-69.541 -4.253)" fill="#fff"/>
      <path id="Path_78" data-name="Path 78" d="M152.566,14.965,149.5,7.3h1.752l2.19,5.694,2.19-5.694h1.752l-3.066,7.665Z" transform="translate(-68.801 -4.234)" fill="#fff"/>
      <path id="Path_79" data-name="Path 79" d="M157.3,11.151A3.929,3.929,0,0,1,161.132,7.1c2.3,0,3.723,1.752,3.723,4.161V11.7h-5.913a2.311,2.311,0,0,0,2.409,2.08,3.255,3.255,0,0,0,2.19-.876L164.308,14a4.223,4.223,0,0,1-3.066,1.095A3.679,3.679,0,0,1,157.3,11.151Zm3.832-2.628a1.983,1.983,0,0,0-2.08,1.971h4.27A2.087,2.087,0,0,0,161.132,8.523Z" transform="translate(-68.06 -4.253)" fill="#fff"/>
      <path id="Path_80" data-name="Path 80" d="M165.7,14.984V7.319h1.642V8.414A3.214,3.214,0,0,1,169.861,7.1V8.742h-.547a2.661,2.661,0,0,0-1.971.985v5.146H165.7Z" transform="translate(-67.262 -4.253)" fill="#fff"/>
      <path id="Path_81" data-name="Path 81" d="M175.846,14.984V10.166c0-1.2-.657-1.533-1.533-1.533a2.853,2.853,0,0,0-1.971.985v5.365H170.7V7.319h1.642V8.3a4,4,0,0,1,2.737-1.2A2.225,2.225,0,0,1,177.6,9.509v5.365h-1.752Z" transform="translate(-66.787 -4.253)" fill="#fff"/>
      <path id="Path_82" data-name="Path 82" d="M188.307,14.993V9.956c0-.876-.329-1.423-1.314-1.423a2.362,2.362,0,0,0-1.752.985v5.365H183.6V9.956c0-.876-.328-1.423-1.2-1.423a2.362,2.362,0,0,0-1.752.985v5.365H179V7.219h1.642V8.2A3.425,3.425,0,0,1,183.161,7a1.962,1.962,0,0,1,2.08,1.423A3.312,3.312,0,0,1,187.869,7a2,2,0,0,1,2.19,2.3v5.475h-1.752Z" transform="translate(-65.999 -4.263)" fill="#fff"/>
      <path id="Path_83" data-name="Path 83" d="M190.5,11.151A3.929,3.929,0,0,1,194.332,7.1c2.3,0,3.723,1.752,3.723,4.161V11.7h-5.913a2.311,2.311,0,0,0,2.409,2.08,3.255,3.255,0,0,0,2.19-.876L197.508,14a4.223,4.223,0,0,1-3.066,1.095A3.734,3.734,0,0,1,190.5,11.151Zm3.942-2.628a1.983,1.983,0,0,0-2.08,1.971h4.27A2.164,2.164,0,0,0,194.442,8.523Z" transform="translate(-64.907 -4.253)" fill="#fff"/>
      <path id="Path_84" data-name="Path 84" d="M204.146,14.984V10.166c0-1.2-.657-1.533-1.533-1.533a2.853,2.853,0,0,0-1.971.985v5.365H199V7.319h1.642V8.3a4,4,0,0,1,2.737-1.2A2.225,2.225,0,0,1,205.9,9.509v5.365h-1.752Z" transform="translate(-64.1 -4.253)" fill="#fff"/>
      <path id="Path_85" data-name="Path 85" d="M207.614,13.393V9.013H206.3V7.48h1.314V5.4h1.642V7.48h1.533V8.9h-1.533v4.051c0,.547.219.876.766.876a.994.994,0,0,0,.766-.328l.438,1.314a2.552,2.552,0,0,1-1.533.438A1.707,1.707,0,0,1,207.614,13.393Z" transform="translate(-63.406 -4.415)" fill="#fff"/>
    </g>
    <g id="Group_1456" data-name="Group 1456" transform="translate(79.056 14.782)">
      <path id="Path_86" data-name="Path 86" d="M82.222,28.112l-2.3-3.942H78.061v3.942H76.2V17.6h4.6a3.134,3.134,0,0,1,3.394,3.285,2.923,2.923,0,0,1-2.518,3.066L84.3,28.112h-2.08Zm.219-7.227a1.641,1.641,0,0,0-1.752-1.642H78.171v3.285h2.518A1.641,1.641,0,0,0,82.441,20.885Z" transform="translate(-76.2 -17.491)" fill="#fff"/>
      <path id="Path_87" data-name="Path 87" d="M85.1,18.585a.985.985,0,1,1,.985.985A.981.981,0,0,1,85.1,18.585Zm.109,9.526V20.556h1.642v7.555Z" transform="translate(-75.355 -17.491)" fill="#fff"/>
      <path id="Path_88" data-name="Path 88" d="M94.1,27.865v-.985a2.908,2.908,0,0,1-2.409,1.2c-1.971,0-3.394-1.423-3.394-3.942,0-2.409,1.423-3.942,3.394-3.942A2.908,2.908,0,0,1,94.1,21.4V20.309h1.642v7.555Zm0-2.3V22.609a2.484,2.484,0,0,0-1.971-.985,2.286,2.286,0,0,0-2.19,2.518,2.286,2.286,0,0,0,2.19,2.518A3.224,3.224,0,0,0,94.1,25.565Z" transform="translate(-75.051 -17.244)" fill="#fff"/>
      <path id="Path_89" data-name="Path 89" d="M96.928,29.745l.766-1.2a3.219,3.219,0,0,0,2.409.985,2.061,2.061,0,0,0,2.3-2.08V26.57a3.009,3.009,0,0,1-2.409,1.314c-1.971,0-3.394-1.423-3.394-3.942S98.023,20,99.994,20a2.908,2.908,0,0,1,2.409,1.2V20.109h1.642v7.227c0,2.737-2.08,3.5-3.942,3.5A3.935,3.935,0,0,1,96.928,29.745Zm5.475-4.38V22.518a2.484,2.484,0,0,0-1.971-.985,2.191,2.191,0,0,0-2.19,2.409,2.191,2.191,0,0,0,2.19,2.409A2.484,2.484,0,0,0,102.4,25.365Z" transform="translate(-74.263 -17.263)" fill="#fff"/>
      <path id="Path_90" data-name="Path 90" d="M110.546,28.121V23.3c0-1.2-.547-1.533-1.533-1.533a2.853,2.853,0,0,0-1.971.985v5.256H105.4V17.5h1.642v3.942a3.725,3.725,0,0,1,2.628-1.2,2.144,2.144,0,0,1,2.409,2.409v5.365h-1.533Z" transform="translate(-73.427 -17.5)" fill="#fff"/>
      <path id="Path_91" data-name="Path 91" d="M118.9,27.865v-.985a2.908,2.908,0,0,1-2.409,1.2c-1.971,0-3.394-1.423-3.394-3.942,0-2.409,1.423-3.942,3.394-3.942a2.908,2.908,0,0,1,2.409,1.2V20.309h1.642v7.555Zm0-2.3V22.609a2.484,2.484,0,0,0-1.971-.985,2.286,2.286,0,0,0-2.19,2.518,2.286,2.286,0,0,0,2.19,2.518A2.948,2.948,0,0,0,118.9,25.565Z" transform="translate(-72.696 -17.244)" fill="#fff"/>
      <path id="Path_92" data-name="Path 92" d="M121.9,26.25V17.6h1.642v8.322c0,.547.219.876.766.876a.852.852,0,0,0,.766-.328l.438,1.2a2.552,2.552,0,0,1-1.533.438C122.557,28.221,121.9,27.564,121.9,26.25Z" transform="translate(-71.86 -17.491)" fill="#fff"/>
      <path id="Path_93" data-name="Path 93" d="M126.4,26.184V21.8h-1.2V20.38h1.2V18.3h1.642v2.08h1.533V21.8h-1.533v3.942c0,.547.219.876.766.876a.994.994,0,0,0,.766-.328l.438,1.2a2.552,2.552,0,0,1-1.533.438C127.061,28.155,126.4,27.5,126.4,26.184Z" transform="translate(-71.546 -17.424)" fill="#fff"/>
      <path id="Path_94" data-name="Path 94" d="M135.9,27.865v-.985a2.908,2.908,0,0,1-2.409,1.2c-1.971,0-3.394-1.423-3.394-3.942,0-2.409,1.423-3.942,3.394-3.942a2.908,2.908,0,0,1,2.409,1.2V20.309h1.642v7.555Zm0-2.3V22.609a2.484,2.484,0,0,0-1.971-.985,2.286,2.286,0,0,0-2.19,2.518,2.286,2.286,0,0,0,2.19,2.518A2.948,2.948,0,0,0,135.9,25.565Z" transform="translate(-71.081 -17.244)" fill="#fff"/>
      <path id="Path_95" data-name="Path 95" d="M138.3,26.789l.766-1.2a3.833,3.833,0,0,0,2.518,1.095c.985,0,1.533-.438,1.533-.985,0-1.533-4.6-.438-4.6-3.394,0-1.2,1.095-2.3,2.956-2.3a4.052,4.052,0,0,1,2.956,1.095l-.657,1.2a2.965,2.965,0,0,0-2.3-.876c-.876,0-1.423.438-1.423.985,0,1.314,4.6.328,4.6,3.394,0,1.314-1.095,2.409-3.175,2.409A5.326,5.326,0,0,1,138.3,26.789Z" transform="translate(-70.302 -17.263)" fill="#fff"/>
      <path id="Path_96" data-name="Path 96" d="M154.446,27.874V23.166c0-1.2-.657-1.533-1.533-1.533a2.853,2.853,0,0,0-1.971.985v5.256H149.3V20.319h1.642V21.3a4,4,0,0,1,2.737-1.2,2.144,2.144,0,0,1,2.409,2.409v5.365Z" transform="translate(-69.258 -17.253)" fill="#fff"/>
      <path id="Path_97" data-name="Path 97" d="M162.9,27.865v-.985a2.908,2.908,0,0,1-2.409,1.2c-1.971,0-3.394-1.423-3.394-3.942,0-2.409,1.423-3.942,3.394-3.942a2.908,2.908,0,0,1,2.409,1.2V20.309h1.642v7.555Zm0-2.3V22.609a2.484,2.484,0,0,0-1.971-.985,2.286,2.286,0,0,0-2.19,2.518,2.286,2.286,0,0,0,2.19,2.518A3.224,3.224,0,0,0,162.9,25.565Z" transform="translate(-68.517 -17.244)" fill="#fff"/>
      <path id="Path_98" data-name="Path 98" d="M174.646,28.121V23.3c0-1.2-.547-1.533-1.533-1.533a2.853,2.853,0,0,0-1.971.985v5.256H169.5V17.5h1.642v3.942a3.725,3.725,0,0,1,2.628-1.2,2.144,2.144,0,0,1,2.409,2.409v5.365h-1.533Z" transform="translate(-67.339 -17.5)" fill="#fff"/>
      <path id="Path_99" data-name="Path 99" d="M177.1,24.423V23h3.723v1.423Z" transform="translate(-66.617 -16.978)" fill="#fff"/>
      <path id="Path_100" data-name="Path 100" d="M189.541,28.112l-.766-1.971h-4.818l-.766,1.971H181L185.161,17.6h2.3l4.161,10.512Zm-3.175-8.65L184.5,24.5h3.723Z" transform="translate(-66.247 -17.491)" fill="#fff"/>
      <path id="Path_101" data-name="Path 101" d="M191.7,26.25V17.6h1.642v8.322c0,.547.219.876.766.876a.852.852,0,0,0,.766-.328l.438,1.2a2.552,2.552,0,0,1-1.533.438C192.357,28.221,191.7,27.564,191.7,26.25Z" transform="translate(-65.231 -17.491)" fill="#fff"/>
      <path id="Path_102" data-name="Path 102" d="M195.8,28.112V17.6h1.642v3.942a3.228,3.228,0,0,1,2.409-1.2c1.971,0,3.394,1.533,3.394,3.942,0,2.518-1.423,3.942-3.394,3.942a2.908,2.908,0,0,1-2.409-1.2V28H195.8Zm3.613-1.314a2.286,2.286,0,0,0,2.19-2.518,2.286,2.286,0,0,0-2.19-2.518,2.661,2.661,0,0,0-1.971.985v3.066A2.328,2.328,0,0,0,199.413,26.8Z" transform="translate(-64.841 -17.491)" fill="#fff"/>
      <path id="Path_103" data-name="Path 103" d="M209.5,27.865v-.985a2.908,2.908,0,0,1-2.409,1.2c-1.971,0-3.394-1.423-3.394-3.942,0-2.409,1.423-3.942,3.394-3.942a2.908,2.908,0,0,1,2.409,1.2V20.309h1.642v7.555Zm0-2.3V22.609a2.484,2.484,0,0,0-1.971-.985,2.286,2.286,0,0,0-2.19,2.518,2.286,2.286,0,0,0,2.19,2.518A3.224,3.224,0,0,0,209.5,25.565Z" transform="translate(-64.091 -17.244)" fill="#fff"/>
    </g>
    <g id="Group_1457" data-name="Group 1457" transform="translate(78.728 28.688)">
      <path id="Path_104" data-name="Path 104" d="M76.228,41.645l.766-1.2a3.22,3.22,0,0,0,2.409.985,2.061,2.061,0,0,0,2.3-2.08V38.47a3.009,3.009,0,0,1-2.409,1.314c-1.971,0-3.394-1.423-3.394-3.942S77.323,31.9,79.294,31.9A2.908,2.908,0,0,1,81.7,33.1V32.009h1.642v7.227c0,2.737-2.08,3.5-3.942,3.5A3.935,3.935,0,0,1,76.228,41.645Zm5.475-4.38V34.418a2.484,2.484,0,0,0-1.971-.985,2.191,2.191,0,0,0-2.19,2.409,2.191,2.191,0,0,0,2.19,2.409A2.484,2.484,0,0,0,81.7,37.265Z" transform="translate(-75.9 -30.039)" fill="#fff"/>
      <path id="Path_105" data-name="Path 105" d="M84.3,35.942A3.734,3.734,0,0,1,88.242,32a3.794,3.794,0,0,1,3.942,3.942,3.942,3.942,0,1,1-7.884,0Zm6.022,0a2.211,2.211,0,1,0-4.38,0,2.211,2.211,0,1,0,4.38,0Z" transform="translate(-75.102 -30.029)" fill="#fff"/>
      <path id="Path_106" data-name="Path 106" d="M94.966,39.655,91.9,32.1h1.752l2.19,5.694,2.19-5.694h1.752l-3.066,7.555Z" transform="translate(-74.38 -30.02)" fill="#fff"/>
      <path id="Path_107" data-name="Path 107" d="M99,38.295a1.095,1.095,0,1,1,1.095,1.095A1.178,1.178,0,0,1,99,38.295Z" transform="translate(-73.706 -29.535)" fill="#fff"/>
      <path id="Path_108" data-name="Path 108" d="M102.1,38.689l.766-1.2a3.833,3.833,0,0,0,2.518,1.095c.985,0,1.533-.438,1.533-.985,0-1.533-4.6-.438-4.6-3.394,0-1.2,1.095-2.3,2.956-2.3a4.052,4.052,0,0,1,2.956,1.095l-.657,1.2a2.965,2.965,0,0,0-2.3-.876c-.876,0-1.423.438-1.423.985,0,1.314,4.6.328,4.6,3.394,0,1.314-1.095,2.409-3.175,2.409A6.484,6.484,0,0,1,102.1,38.689Z" transform="translate(-73.412 -30.039)" fill="#fff"/>
      <path id="Path_109" data-name="Path 109" d="M109.1,35.942A3.8,3.8,0,0,1,113.042,32,3.607,3.607,0,0,1,116,33.314L114.9,34.3a2.128,2.128,0,0,0-1.752-.876,2.306,2.306,0,0,0-2.3,2.518,2.3,2.3,0,0,0,2.3,2.518,2.128,2.128,0,0,0,1.752-.876L116,38.57a3.607,3.607,0,0,1-2.956,1.314A3.8,3.8,0,0,1,109.1,35.942Z" transform="translate(-72.747 -30.029)" fill="#fff"/>
      <path id="Path_110" data-name="Path 110" d="M116.2,35.942a3.942,3.942,0,1,1,7.884,0,3.942,3.942,0,0,1-7.884,0Zm6.132,0a2.211,2.211,0,1,0-4.38,0,2.211,2.211,0,1,0,4.38,0Z" transform="translate(-72.073 -30.029)" fill="#fff"/>
      <path id="Path_111" data-name="Path 111" d="M125.314,38.084V33.7H124V32.28h1.2V30.2h1.642v2.08h1.533V33.7h-1.533v3.942c0,.547.219.876.766.876a.994.994,0,0,0,.766-.328l.438,1.2a2.552,2.552,0,0,1-1.533.438C125.971,40.055,125.314,39.4,125.314,38.084Z" transform="translate(-71.332 -30.2)" fill="#fff"/>
    </g>
  </g>
</svg>
