<svg xmlns="http://www.w3.org/2000/svg" width="198.702" height="24.031" viewBox="0 0 198.702 24.031">
  <g id="Group_1449" data-name="Group 1449" transform="translate(0 0)">
    <path id="Path_29" data-name="Path 29" d="M-447.1-584.055a2.289,2.289,0,0,1,1.41,2.488c-.031,1.963-.008,3.926-.008,5.923.054-.028.142-.046.185-.1,2.41-2.959,8.557-3.029,11.11,1.42,1.977,3.447,1.688,8.63-.661,11.581-2.612,3.281-8.109,3.7-10.849.387v1.844h-4.024v-.788q0-8.838,0-17.676c0-.265-.009-.529-.021-.794a.656.656,0,0,0-.718-.692c-.441-.013-.882-.013-1.323-.018v-3.577Zm1.089,15.1a22.059,22.059,0,0,0,.871,3.054,3.592,3.592,0,0,0,3.379,2.26,3.734,3.734,0,0,0,3.629-2.106,6.612,6.612,0,0,0-.08-6.47,3.611,3.611,0,0,0-3.443-1.95,3.619,3.619,0,0,0-3.456,2.147A21.617,21.617,0,0,0-446.01-568.953Z" transform="translate(452 584.055)" fill="#fff"/>
    <path id="Path_30" data-name="Path 30" d="M55.034-584.055a1.893,1.893,0,0,1,1.214,2.086c-.033,3.244-.012,6.488-.012,9.732,0,.238,0,.476,0,.747a9,9,0,0,0,1.884-.033,1.98,1.98,0,0,0,1.077-.769q1.521-2.205,2.917-4.495a1.2,1.2,0,0,1,1.219-.649c1.255.044,2.513.013,3.96.013l-5.373,7.858c1.212,1.129,1.786,2.872,2.637,4.441a1.683,1.683,0,0,0,1.819,1.088,8.61,8.61,0,0,1,.948-.005v3.482c-1.428,0-2.853.062-4.269-.024-.831-.051-1.224-.793-1.583-1.464q-1.139-2.129-2.263-4.265c-.82-1.554-1.091-1.7-2.936-1.508v7.3H52V-579.1c0-1.318-.044-1.361-1.384-1.366H50v-3.589Z" transform="translate(16.499 584.055)" fill="#fff"/>
    <path id="Path_31" data-name="Path 31" d="M959.616-523.373a5.621,5.621,0,0,1-4.3,3.61,9.528,9.528,0,0,1-8.732-2.273,3.773,3.773,0,0,1-.279-.282c-.058-.064-.107-.137-.186-.242l1.959-2.713c.427.354.811.7,1.227,1.013a6.287,6.287,0,0,0,3.834,1.426,4.2,4.2,0,0,0,1.232-.19,1.438,1.438,0,0,0,1.08-1.289,1.255,1.255,0,0,0-.8-1.261c-1-.5-2.056-.9-3.061-1.4a20.248,20.248,0,0,1-3.181-1.731,4.434,4.434,0,0,1,.936-7.821,9.58,9.58,0,0,1,7.781.069,2.926,2.926,0,0,1,1.953,3.07c-.028.437,0,.876,0,1.364h-3.636c-.025-.038-.065-.071-.067-.106-.1-1.328-.577-1.817-1.941-1.839a6.288,6.288,0,0,0-1.689.222,1.288,1.288,0,0,0-1.028,1.087,1.265,1.265,0,0,0,.71,1.313,12.672,12.672,0,0,0,1.655.816c1,.417,2.018.771,3.007,1.2a5.9,5.9,0,0,1,3.533,3.438Z" transform="translate(-760.913 543.509)" fill="#fff"/>
    <path id="Path_32" data-name="Path 32" d="M427.9-584.055a2.21,2.21,0,0,1,1.47,2.44c-.017,5.426-.007,10.853-.007,16.279,0,1.259.032,1.292,1.3,1.3h.651v3.524c-1.571,0-3.151.05-4.726-.021a1.485,1.485,0,0,1-1.4-1.372,6.706,6.706,0,0,1-.078-1.119q-.007-8.073,0-16.147c0-1.212-.072-1.286-1.255-1.289H423v-3.589Z" transform="translate(-307.09 584.055)" fill="#fff"/>
    <path id="Path_33" data-name="Path 33" d="M-293.231-584.055a2.16,2.16,0,0,1,1.472,2.364c-.021,5.449-.01,10.9-.009,16.348,0,1.258.041,1.3,1.309,1.3h.686v3.576c-1.124,0-2.241.011-3.358,0a9.479,9.479,0,0,1-1.575-.115,1.449,1.449,0,0,1-1.2-1.253,6.127,6.127,0,0,1-.094-1.117q-.009-8.108,0-16.216c0-1.22-.076-1.294-1.322-1.3H-298v-3.588Z" transform="translate(318.4 584.055)" fill="#fff"/>
    <path id="Path_34" data-name="Path 34" d="M518.709-584.055v3.86H515v-3.86Z" transform="translate(-386.903 584.055)" fill="#fff"/>
    <path id="Path_35" data-name="Path 35" d="M-210.754-522.021c-2.316,2.928-5.482,3.625-8.4,2a4.986,4.986,0,0,1-.125-8.594,13.632,13.632,0,0,1,5.963-1.565c.721-.052,1.448-.008,2.156-.008.349-2.111-.7-3.41-2.716-3.477-.2-.007-.4-.007-.6,0-1.514.067-1.884.421-1.987,1.95h-3.882a20.442,20.442,0,0,1,.016-2.238,2.694,2.694,0,0,1,1.7-2.131,11.185,11.185,0,0,1,5.763-.817,7.939,7.939,0,0,1,.919.12c3.447.641,5.091,2.7,5.135,6.465.023,1.987,0,3.974.005,5.961,0,1.081.1,1.175,1.162,1.177h.837v3.542c-1.465,0-2.92.076-4.362-.025C-210.281-519.741-210.678-520.428-210.754-522.021Zm-.277-5.266c-.744,0-1.446-.036-2.143.011a9.615,9.615,0,0,0-1.822.285,5.89,5.89,0,0,0-1.446.617,1.859,1.859,0,0,0-.934,1.9,1.772,1.772,0,0,0,1.208,1.664,4.45,4.45,0,0,0,2.113.162C-212.224-523.048-210.884-525.17-211.031-527.287Z" transform="translate(252.191 543.195)" fill="#fff"/>
    <path id="Path_36" data-name="Path 36" d="M714.352-530.486c-.047-1.24-.067-2.378-1.142-3.012a4,4,0,0,0-3.7-.12c-.712.294-.526.986-.583,1.612h-3.8c-.357-2.555-.052-3.943,2.649-4.765a11.565,11.565,0,0,1,6.785-.021c2.51.751,3.918,2.717,4,5.607.059,2.161.019,4.324.021,6.486,0,1.164.066,1.228,1.246,1.229h.771v3.542c-1.478,0-2.933.076-4.376-.024-1.119-.078-1.556-.835-1.55-2.372a3.272,3.272,0,0,0-.264.3c-2.239,3.459-7.215,3.036-9.329.792a4.945,4.945,0,0,1,.892-7.576,12.88,12.88,0,0,1,6.19-1.674C712.862-530.527,713.567-530.486,714.352-530.486Zm-.02,2.893a11.287,11.287,0,0,0-4.79.6,2.135,2.135,0,0,0-1.513,2.358,2.258,2.258,0,0,0,2.28,1.832C712.6-522.684,714.644-525.077,714.332-527.593Z" transform="translate(-550.618 543.485)" fill="#fff"/>
    <path id="Path_37" data-name="Path 37" d="M248.648-551.385a4.7,4.7,0,0,1-2.418-4.4,4.853,4.853,0,0,1,2.946-4.639,8.951,8.951,0,0,1,6.021-.35l-.873,2.832c-.544-.038-1.048-.116-1.548-.1a2.757,2.757,0,0,0-2.764,3.486,2.589,2.589,0,0,0,2.466,1.954c1.057.05,2.119,0,3.178.022.383.006.5-.164.5-.518-.013-.611,0-1.222,0-1.884h3.531v2.317h2.393v3.2h-2.377c0,.9.013,1.731,0,2.563a6.49,6.49,0,0,1-2.23,5.176,8.289,8.289,0,0,1-10.6-.744,5.575,5.575,0,0,1,.11-7.77A13.039,13.039,0,0,1,248.648-551.385Zm4.065,1.835c-.216.022-.386.035-.556.056-1.772.229-2.9,1.2-3.046,2.622a2.965,2.965,0,0,0,2.483,3.24c2.061.427,3.781-.344,4.259-2.039a11.827,11.827,0,0,0,.285-2.614c.055-1.126.025-1.127-1.052-1.28C255.052-549.571,253.42-549.566,252.713-549.551Z" transform="translate(-152.962 564.163)" fill="#fff"/>
    <path id="Path_38" data-name="Path 38" d="M588.83-533.991c0,.764.033,1.446-.018,2.122a1.4,1.4,0,0,1-.38.666q-4.3,5.206-8.609,10.4a.913.913,0,0,0-.073.179h3.089c.574,0,1.148,0,1.721,0,.9-.007,1.02-.136,1.039-1.039,0-.175.019-.349.033-.579H589.4c0,1.257.056,2.491-.019,3.716a1.558,1.558,0,0,1-1.48,1.456,5.278,5.278,0,0,1-.793.035q-6.191,0-12.382,0h-.67c.034-1.143-.19-2.179.7-3.216,2.85-3.306,5.569-6.725,8.369-10.137H580.6c-.574,0-1.148-.008-1.721,0-.746.013-.916.194-.927.956,0,.217,0,.434,0,.692H574.19c0-1.312-.057-2.608.024-3.9a1.4,1.4,0,0,1,1.216-1.241,5.374,5.374,0,0,1,1.114-.115q5.794-.012,11.588,0Z" transform="translate(-438.132 540.624)" fill="#fff"/>
    <path id="Path_39" data-name="Path 39" d="M-65.728-531.035h-3.667a2.406,2.406,0,0,1-.069-.371c-.037-1.129-.349-1.5-1.468-1.738a4.948,4.948,0,0,0-5.963,4.927c-.139,4.042,3.652,6.583,7.509,4.975a24.838,24.838,0,0,0,2.893-1.684c.469.777,1.024,1.647,1.51,2.553.076.141-.1.523-.264.669a9.834,9.834,0,0,1-10.664,1.862,7.852,7.852,0,0,1-4.958-5.724c-1.518-6.172,2.776-11.858,9.958-11.193a10.8,10.8,0,0,1,3.161.88,3.079,3.079,0,0,1,2.027,3.242C-65.756-532.115-65.728-531.591-65.728-531.035Z" transform="translate(130.296 543.07)" fill="#fff"/>
    <path id="Path_40" data-name="Path 40" d="M847.99-518.447h-4.223v-.725q0-5.7,0-11.39c0-1.11-.1-1.211-1.2-1.213h-.827v-3.566c1.507,0,2.983-.065,4.45.022a1.675,1.675,0,0,1,1.657,1.866c.018.585,0,1.171.047,1.777,1.228-2.545,3.032-4.133,6.07-3.892v4.148c-.188,0-.357,0-.525,0a4.852,4.852,0,0,0-5.28,4.465,28.751,28.751,0,0,0-.166,3.5C847.971-521.81,847.99-520.159,847.99-518.447Z" transform="translate(-670.364 542.013)" fill="#fff"/>
    <path id="Path_41" data-name="Path 41" d="M498.353-530.422v-3.6c.694,0,1.367,0,2.041,0,.772,0,1.545-.024,2.315.017a1.77,1.77,0,0,1,1.879,1.811,6.893,6.893,0,0,1,.023.726q0,4.731,0,9.461c0,1.332.027,1.357,1.374,1.366.195,0,.389,0,.631,0v3.544c-1.564,0-3.105.064-4.637-.022-1.066-.06-1.562-.809-1.565-2.076-.007-3.066,0-6.131,0-9.2,0-.375.01-.75,0-1.125-.022-.7-.222-.886-.93-.9C499.131-530.428,498.78-530.422,498.353-530.422Z" transform="translate(-372.461 540.659)" fill="#fff"/>
  </g>
</svg>
