<svg xmlns="http://www.w3.org/2000/svg" width="200.2" height="34.879" viewBox="0 0 200.2 34.879">
  <g id="Banco_Santander_Logotipo" transform="translate(0 -0.4)">
    <path id="Path_112" data-name="Path 112" d="M26.475,16.453a7.881,7.881,0,0,0-1.093-3.614l-5.715-10A8.58,8.58,0,0,1,18.742.4L18.49.82a7.972,7.972,0,0,0,0,7.984l4.623,7.984a7.972,7.972,0,0,1,0,7.984l-.252.42a8.579,8.579,0,0,0-.925-2.437l-4.2-7.312-2.69-4.707A8.579,8.579,0,0,1,14.12,8.3l-.252.42a7.972,7.972,0,0,0,0,7.984h0L18.49,24.69a7.972,7.972,0,0,1,0,7.984l-.252.42a8.58,8.58,0,0,0-.925-2.437l-5.8-10a8.878,8.878,0,0,1-1.093-4.37C4.286,17.882,0,21.328,0,25.278c0,5.547,8.237,10,18.406,10s18.406-4.454,18.406-10C36.9,21.5,32.694,18.05,26.475,16.453Zm17.4,17.062a11.458,11.458,0,0,1,.672-3.53,15.769,15.769,0,0,0,6.3,1.345c3.194,0,5.043-1.009,5.043-3.11,0-2.017-1.345-2.942-4.539-4.37l-1.765-.672c-3.278-1.429-5.463-3.278-5.463-6.892,0-3.95,2.774-6.472,8.321-6.472a19.066,19.066,0,0,1,6.3,1.009,13.186,13.186,0,0,1-.672,3.446,18.233,18.233,0,0,0-5.715-1.009c-3.026,0-4.37,1.177-4.37,3.026,0,1.765,1.345,2.858,3.782,3.866l1.849.756c4.37,1.849,6.219,3.866,6.219,7.228,0,3.95-3.026,6.724-8.909,6.724A16.286,16.286,0,0,1,43.873,33.515ZM78.416,16.957V34.271h-3.53l-.168-2.1a5.368,5.368,0,0,1-4.875,2.521c-4.539,0-7.648-3.362-7.648-9.161,0-6.051,3.278-9.581,9.665-9.581A21.915,21.915,0,0,1,78.416,16.957ZM74.634,30.321V19.479a13.611,13.611,0,0,0-2.774-.168c-3.95,0-5.8,2.437-5.8,6.3,0,3.53,1.429,6.051,4.791,6.051A6.6,6.6,0,0,0,74.634,30.321Zm23.281-7.648v11.6H94.133V23.345c0-2.774-.925-4.034-4.707-4.034a20,20,0,0,0-3.026.252V34.271H82.618V16.957a33.234,33.234,0,0,1,6.892-1.009C95.9,16.033,97.915,18.47,97.915,22.672ZM108.5,31.5a7.687,7.687,0,0,0,2.942-.5c-.084,1.009-.252,2.185-.42,3.194a8.581,8.581,0,0,1-3.194.588c-3.7,0-6.051-1.681-6.051-5.883V10.654a11.837,11.837,0,0,1,3.782-.588v6.556h6.051c-.084,1.177-.168,2.269-.336,3.278h-5.715v8.489C105.563,30.573,106.656,31.5,108.5,31.5Zm20.423-14.54V34.271H125.4l-.168-2.1a5.368,5.368,0,0,1-4.875,2.521c-4.539,0-7.648-3.362-7.648-9.161,0-6.051,3.278-9.581,9.665-9.581A22.357,22.357,0,0,1,128.928,16.957Zm-3.866,13.363V19.479a13.611,13.611,0,0,0-2.774-.168c-3.95,0-5.8,2.437-5.8,6.3,0,3.53,1.429,6.051,4.791,6.051A6.381,6.381,0,0,0,125.062,30.321Zm23.365-7.648v11.6h-3.866V23.345c0-2.774-.925-4.034-4.707-4.034a20,20,0,0,0-3.026.252V34.271h-3.782V16.957a33.234,33.234,0,0,1,6.892-1.009C146.326,16.033,148.427,18.47,148.427,22.672Zm19.247-12.607V34.271h-3.53l-.168-2.185a5.31,5.31,0,0,1-4.959,2.605c-4.539,0-7.648-3.362-7.648-9.161,0-6.051,3.278-9.581,9.665-9.581a15.718,15.718,0,0,1,2.858.252V10.486A14.119,14.119,0,0,1,167.674,10.065Zm-3.782,20.255V19.647a18.522,18.522,0,0,0-3.026-.336c-3.782,0-5.547,2.353-5.547,6.3,0,3.53,1.429,6.051,4.791,6.051A6.83,6.83,0,0,0,163.892,30.321Zm22.945-3.446H174.65c.5,3.11,2.269,4.539,5.715,4.539a13.561,13.561,0,0,0,6.051-1.345c-.168,1.009-.336,2.353-.588,3.446a13.741,13.741,0,0,1-5.631,1.093c-6.388,0-9.413-3.53-9.413-9.413,0-5.127,2.353-9.245,8.4-9.245,5.463,0,7.816,3.53,7.816,7.9A17.287,17.287,0,0,1,186.837,26.875ZM174.65,23.681h8.573c0-2.858-1.513-4.539-4.118-4.539C176.331,19.227,174.9,20.739,174.65,23.681ZM200.2,16.2a17.123,17.123,0,0,1-.336,3.278c-.925-.084-1.765-.168-2.858-.168-.925,0-1.849.084-2.774.168V34.271h-3.782V16.957a21.777,21.777,0,0,1,6.472-1.009C198.015,16.033,199.36,16.033,200.2,16.2Z" fill="#fff"/>
  </g>
</svg>
