<svg xmlns="http://www.w3.org/2000/svg" width="124.971" height="44.975" viewBox="0 0 124.971 44.975">
  <path id="Path_20" data-name="Path 20" d="M27.937,25.782c-8.136,9.56-15.928,21.4-16.01,30.251a10.442,10.442,0,0,0,3.585,8.43A17.407,17.407,0,0,0,27.25,68.769c5.877,0,11.721-2.374,16.288-4.191,7.71-3.077,92.833-40.057,92.833-40.057.818-.409.671-.917-.36-.655-.426.1-92.669,25.095-92.669,25.095a20.555,20.555,0,0,1-5.369.769c-7.088.049-13.407-3.9-13.341-12.179.016-3.258,1-7.17,3.307-11.77" transform="translate(-11.927 -23.794)" fill="#fff"/>
</svg>
