<svg id="Group_1453" data-name="Group 1453" xmlns="http://www.w3.org/2000/svg" width="199.256" height="64.027" viewBox="0 0 199.256 64.027">
  <path id="Path_47" data-name="Path 47" d="M265.763,116.561a4.768,4.768,0,0,0-4.938-4.674H253.9v15.576h3.208V114.006h2.527a2.544,2.544,0,0,1,2.8,2.7c0,1.437-.537,2.647-2.73,2.647-1.118,0-1.564.22-1.614.855-.047.6.667.933,1.39,1.072,3.191.606,6.285-1.3,6.285-4.719" transform="translate(-137.492 -63.655)" fill="#fff"/>
  <path id="Path_48" data-name="Path 48" d="M407.992,120.277a4.159,4.159,0,0,0,3.226-4.1c0-2.131-1.683-4.288-4.919-4.288h-6.927v15.576h3.2V114.006H405.1c2.427,0,2.786,1.449,2.786,2.311,0,1.44-1.027,2.342-2.694,2.342-1.077,0-1.7.417-1.7,1.13,0,.4.261.917,1.447,1.1,1.471.229,2.064,1.667,2.816,3.474,0,0,.645,1.532.867,2.025a1.42,1.42,0,0,0,1.532,1.072h2.508l-1.111-2.374c-1.1-2.446-1.976-3.895-3.566-4.811" transform="translate(-213.413 -63.655)" fill="#fff"/>
  <path id="Path_49" data-name="Path 49" d="M373.571,120.49h7.5v-2.119h-7.5v-4.357h7.883V111.9h-11.09v15.569h11.251v-2.119h-8.044Z" transform="translate(-198.275 -63.663)" fill="#fff"/>
  <path id="Path_50" data-name="Path 50" d="M289.241,111.434c-5.766,0-8.343,4.026-8.343,8,0,3.992,2.576,8.009,8.343,8.009,5.709,0,8.306-4.148,8.306-8.009,0-3.976-2.561-8-8.306-8m0,13.484c-3.2,0-5.017-2-5.017-5.482s1.821-5.476,5.017-5.476c3.17,0,4.982,2,4.982,5.476s-1.811,5.482-4.982,5.482" transform="translate(-151.584 -63.418)" fill="#fff"/>
  <path id="Path_51" data-name="Path 51" d="M338.4,111.9a1.2,1.2,0,0,0-1.365,1.067l-3.522,11.382L329.994,111.9h-2.918a1.178,1.178,0,0,0-1.35,1.016l-3.371,11.5L319.017,111.9h-3.549l4.567,15.594h4.119l3.624-12.288,3.466,12.288h4.067l4.75-15.594Z" transform="translate(-169.625 -63.663)" fill="#fff"/>
  <path id="Path_52" data-name="Path 52" d="M36.273,125.894l.129-2.258A11.674,11.674,0,0,0,40.74,124.7c.908-.029,3.375.04,3.252-2.09-.155-2.7-7.688-2.174-7.688-7.029,0-3.361,3.521-4.534,6.367-4.534a14.005,14.005,0,0,1,3.617.6l-.065,1.069a.911.911,0,0,1-1.155.853,10.488,10.488,0,0,0-2.373-.2c-.925.036-3.137.175-3.028,1.824.161,2.4,7.811,2.018,7.811,7.4,0,3.258-3.2,4.467-6.61,4.467a11.092,11.092,0,0,1-4.595-1.16" transform="translate(-23.918 -63.217)" fill="#fff"/>
  <path id="Path_53" data-name="Path 53" d="M70.361,113.383a9.915,9.915,0,0,1,2.356.154.9.9,0,0,0,1.206-.831l.063-1.063a13.186,13.186,0,0,0-3.818-.6c-5.766,0-8.343,4.028-8.343,8s2.577,8,8.343,8a13.185,13.185,0,0,0,3.818-.6l-.13-2.213a8.5,8.5,0,0,1-3.494.47c-3.19-.1-5.21-2.182-5.21-5.663s2.021-5.563,5.21-5.663" transform="translate(-37.254 -63.215)" fill="#fff"/>
  <path id="Path_54" data-name="Path 54" d="M96.392,111.044c-5.765,0-8.342,4.028-8.342,8,0,3.992,2.577,8.008,8.342,8.008,5.709,0,8.307-4.146,8.307-8.008,0-3.976-2.561-8-8.307-8m0,13.486c-3.2,0-5.018-2-5.018-5.482s1.822-5.476,5.018-5.476c3.169,0,4.982,1.994,4.982,5.476s-1.813,5.482-4.982,5.482" transform="translate(-50.94 -63.215)" fill="#fff"/>
  <rect id="Rectangle_633" data-name="Rectangle 633" width="3.207" height="15.569" transform="translate(79.66 48.232)" fill="#fff"/>
  <path id="Path_55" data-name="Path 55" d="M133.98,111.887H122.438v2.119h4.3v13.45h3.207v-13.45h4.038Z" transform="translate(-68.886 -63.655)" fill="#fff"/>
  <path id="Path_56" data-name="Path 56" d="M160.48,111.887H148.938v2.119h4.3v13.45h3.207v-13.45h4.039Z" transform="translate(-82.716 -63.655)" fill="#fff"/>
  <path id="Path_57" data-name="Path 57" d="M228.2,111.887v6.46h-7.393v-6.46H217.6v15.569h3.207v-6.992H228.2v6.992h3.206V111.887Z" transform="translate(-118.552 -63.655)" fill="#fff"/>
  <path id="Path_58" data-name="Path 58" d="M189.62,125.894l.129-2.258a11.667,11.667,0,0,0,4.336,1.065c.909-.029,3.376.04,3.253-2.09-.156-2.7-7.687-2.174-7.687-7.029,0-3.361,3.52-4.534,6.365-4.534a13.981,13.981,0,0,1,3.616.6l-.062,1.069a.912.912,0,0,1-1.156.853,10.485,10.485,0,0,0-2.374-.2c-.925.036-3.138.175-3.027,1.824.16,2.4,7.812,2.018,7.812,7.4,0,3.258-3.2,4.467-6.613,4.467a11.084,11.084,0,0,1-4.592-1.16" transform="translate(-103.947 -63.217)" fill="#fff"/>
  <g id="Group_1451" data-name="Group 1451" transform="translate(0 0)">
    <path id="Path_59" data-name="Path 59" d="M50.114,43.035c-4.24,3.039-8,6.17-8.1,12.37h0a9.781,9.781,0,0,0,2.98,6.822c.181.182.371.351.565.517C49.094,59.458,51.372,53.218,50.114,43.035Z" transform="translate(-26.912 -27.722)" fill="#fff"/>
    <path id="Path_60" data-name="Path 60" d="M28.349,46.653c-.173-.152-.35-.3-.514-.462a10.661,10.661,0,0,1-3.26-7.517c.118-6.861,4.485-10.273,8.917-13.426a79.239,79.239,0,0,0-3.59-14.24c-1.153,14.63-19.215,13.636-19.468,27.568,0,.02,0,.042,0,.064v.135a10.29,10.29,0,0,0,3.129,6.972,10.054,10.054,0,0,0,2.633,1.914,36.342,36.342,0,0,0-.422,10.806l2.2-.118a29.749,29.749,0,0,1-.488-10.11A11.2,11.2,0,0,0,28.349,46.653Zm-11.1-.04A9.288,9.288,0,0,1,14.815,44.9a9.091,9.091,0,0,1-2.893-6.248v-.121c0-.019,0-.039,0-.057.234-12.484,16.935-11.593,18-24.7a21.65,21.65,0,0,1,.024,6.709,24.351,24.351,0,0,1-2.206,5.8A8.919,8.919,0,0,1,26.166,23.6a10.513,10.513,0,0,0,.992,3.825,54,54,0,0,1-3.314,5.259,21.255,21.255,0,0,1-2.334-5.126c-.011.007-.021.007-.021.018a12.929,12.929,0,0,0,1.726,6.027,50.21,50.21,0,0,0-3.529,5.841,32.42,32.42,0,0,1-3.25-7.931v0a18.826,18.826,0,0,0,2.736,9.055A28.285,28.285,0,0,0,17.25,46.613Z" transform="translate(-10.433 -11.008)" fill="#fff"/>
  </g>
  <g id="Group_1452" data-name="Group 1452" transform="translate(15.097 2.202)">
    <path id="Path_61" data-name="Path 61" d="M80.568,44.093c-3.946,2.889-7.3,6.007-7.4,11.864h0a9.783,9.783,0,0,0,2.98,6.822c.038.038.079.071.118.108C78.894,60.32,81.853,54.955,80.568,44.093Z" transform="translate(-58.267 -30.476)" fill="#fff"/>
    <path id="Path_62" data-name="Path 62" d="M59.209,48.594a10.661,10.661,0,0,1-3.26-7.517c.111-6.5,4.036-9.9,8.216-12.924a75.1,75.1,0,0,0-2.986-12.54c-1.247,6.155-5.689,9.3-10,12.351-4.657,3.3-9.057,6.413-9.172,13.13h0a9.781,9.781,0,0,0,2.98,6.822,10.923,10.923,0,0,0,13.228,1.52,10.236,10.236,0,0,0,1.072-.771C59.264,48.641,59.235,48.62,59.209,48.594Z" transform="translate(-42.008 -15.613)" fill="#fff"/>
  </g>
  <path id="Path_63" data-name="Path 63" d="M82.335,27.964c-4.657,3.3-9.057,6.413-9.172,13.13h0a9.783,9.783,0,0,0,2.98,6.822,10.923,10.923,0,0,0,13.228,1.52c3.515-2.19,10.673-9.825,2.961-33.824C91.085,21.768,86.644,24.912,82.335,27.964Z" transform="translate(-43.17 -13.411)" fill="#fff"/>
</svg>
