<svg xmlns="http://www.w3.org/2000/svg" width="104" height="111.559" viewBox="0 0 104 111.559">
  <g id="gleneagles" transform="translate(-0.033)">
    <path id="Path_123" data-name="Path 123" d="M329.211,223.871a2.46,2.46,0,0,1-.736,1.026s.647-.87.134-1.316c-.312-.29-.781-.245-.87-.045-1.539,2.878-4.238,3.77-2.677,3.77.691,0,3.324.112,3.926-.692l-3.123.178s5.086-2.476,3.859.29c-.022,0,2.9-2.164-.513-3.212" transform="translate(-252.158 -173.546)" fill="#fff"/>
    <path id="Path_124" data-name="Path 124" d="M279.9,15.114c-.067-.245-.2-.468-.29-.714,0,0,.625,1.718-.937,4.729-1.249,2.431-5.041,8.611-5.041,8.611a19.359,19.359,0,0,0,1.606-4.707,12.964,12.964,0,0,0,.2-6.491s.513,1.762-1.2,4.662a73.576,73.576,0,0,0-4.06,8.031h-.022c.915-2.476,1.7-5.621.692-8.454a24.9,24.9,0,0,1-2.1,6.781,34.281,34.281,0,0,0-2.9,7.451,37.583,37.583,0,0,1,.692-3.815,7.764,7.764,0,0,0-.245-5.443,8.383,8.383,0,0,1-1.16,4.863,10.315,10.315,0,0,0-1.606,6.157,19.6,19.6,0,0,1,.045-6.425,21.392,21.392,0,0,0-2.788,11.934c-.736-1.985-.245-6.558-.245-6.558-3.725,3.926-1.45,9.838-1.45,9.838-1.985-2.275-1-6.469-1-6.469-4.528,3.435-.2,7.54-.2,7.54-2.655-1-2.476-4.461-2.476-4.461a7.47,7.47,0,0,0-2.186,2.677,5.486,5.486,0,0,0,2.989,3.034c-2.164-.245-3.569-2.632-3.569-2.632a4.936,4.936,0,0,0-1.517,1.874c.58,1.562,2.811,2.231,2.811,2.231a3.3,3.3,0,0,1-3.078-1.807,3.831,3.831,0,0,0-1.182,2.275c.446,1.138,2.61,1.718,2.61,1.718a3.4,3.4,0,0,1-2.922-1.249,3.676,3.676,0,0,0-.379,2.231,16.391,16.391,0,0,0,4.885,8.388,20.345,20.345,0,0,1,5.376-1.428c3.012-7.584,9.793-13.585,9.971-13.741a2.06,2.06,0,0,0,.535-.692c.178-.424.848-2.476,1.071-3.056.2-.558.4-1.138.625-1.7.2-.558.424-1.115.625-1.673s.424-1.115.625-1.651.424-1.093.647-1.628.424-1.071.647-1.584.424-1.048.647-1.562.424-1,.647-1.517c.223-.491.424-.982.647-1.45.2-.468.424-.937.625-1.383s.4-.87.6-1.316c.178-.4.379-.8.558-1.2.156-.379.335-.736.491-1.115.156-.335.29-.647.446-.982.134-.29.245-.58.379-.87.112-.245.2-.491.312-.736a5.556,5.556,0,0,0,.245-.647c.067-.178.134-.379.2-.558.067-.156.112-.335.178-.513.022-.067.067-.156.089-.223a9.9,9.9,0,0,0-.156-4.573" transform="translate(-193.39 -11.188)" fill="#fff"/>
    <path id="Path_125" data-name="Path 125" d="M296.061,220.231a25.112,25.112,0,0,1,2.588-.112c.692.022,1.985-1.2-1.338-1.539a45.042,45.042,0,0,0-8.41.134c2.342-.045,3.034,1.874,7.161,1.517" transform="translate(-224.428 -169.705)" fill="#fff"/>
    <path id="Path_126" data-name="Path 126" d="M41.717,204.635a23.614,23.614,0,0,1-1.472-1.874c-.535-.736-1.071-1.472-1.517-2.231s-.87-1.495-1.227-2.231-.669-1.428-.937-2.075c-.268-.669-.491-1.272-.669-1.829s-.335-1.026-.446-1.45c-.223-.8-.312-1.272-.312-1.272a11.98,11.98,0,0,0,.045,1.338,19.478,19.478,0,0,0,.625,3.458,21.966,21.966,0,0,0,.736,2.253c.134.4.335.781.491,1.2q.268.6.6,1.2l.335.6c.112.2.245.4.357.6a14.13,14.13,0,0,0,.8,1.2c.112.134.2.29.312.424-1.517-1.874-8.588-10.551-5.956-22.173a16.317,16.317,0,0,0-.4,14.723h0a37.06,37.06,0,0,1-3.837-12.76c-1.45-11.533,6.8-16.641,6.625-16.574-8.834,2.632-8.633,14.254-8.633,14.567-.223-1.472-.379-2.833-.535-4.685,0,0-.022-.468-.022-.758a22.728,22.728,0,0,1,.022-2.431,14.806,14.806,0,0,1,.156-1.628c.067-.58.178-1.182.29-1.807.134-.625.29-1.272.468-1.918s.4-1.294.647-1.941a19.906,19.906,0,0,1,.825-1.874c.156-.29.29-.6.468-.892.156-.29.312-.58.491-.848s.335-.535.513-.8a8.868,8.868,0,0,1,.535-.736c.178-.223.357-.468.535-.692s.357-.424.513-.625c.357-.379.669-.736.959-1.026.312-.29.558-.558.781-.758.446-.4.714-.625.714-.625s-.29.2-.781.535c-.245.156-.535.4-.87.647-.335.268-.692.58-1.093.915-.2.178-.379.357-.6.558-.2.2-.4.424-.6.625a9.2,9.2,0,0,0-.625.692c-.223.245-.424.491-.625.758l-.6.8a8.415,8.415,0,0,0-.58.87,21.147,21.147,0,0,0-1.071,1.851c-.335.647-.647,1.294-.915,1.963-.29.647-.513,1.316-.736,1.963-.2.647-.379,1.294-.535,1.9a11.079,11.079,0,0,0-.2,1.985,3.2,3.2,0,0,0-.134-.825,9.928,9.928,0,0,0-.491-1.272,4.26,4.26,0,0,0-.335-.625c-.112-.2-.245-.4-.379-.6a5.834,5.834,0,0,0-4.283-2.208,6.089,6.089,0,0,0-1.517.067,3.194,3.194,0,0,0-.558.112c5.51,1.071,7.428,6.068,8.343,9.3l.312,1.383a64,64,0,0,0,1.941,7.518c-.022-.022-.022-.045-.045-.067l-.067-.089c-4.528-6.4-10.752-2.075-10.752-2.075a10.617,10.617,0,0,1,2.231-.134,10.711,10.711,0,0,1,2.075.178,8.271,8.271,0,0,1,3.614,1.428,13.092,13.092,0,0,1,2.833,3.056c.6,1,1.249,1.963,1.829,2.989.513.915,1.048,1.807,1.517,2.721a2.007,2.007,0,0,0,.112.2c.468.781.959,1.562,1.495,2.3a23.964,23.964,0,0,0,2.275,2.5c.424.424.8.8,1.093,1.071a21.766,21.766,0,0,0,1.985,2.119,3.4,3.4,0,0,0-.357-.245,7.682,7.682,0,0,0-1.718-.848,10.159,10.159,0,0,0-1.628-.4,8.006,8.006,0,0,0-1.383-.112,7.739,7.739,0,0,0-1.071.045c-.29.022-.513.067-.669.067-.156.022-.223.045-.245.045a.172.172,0,0,1,.067.022c.045,0,.112.022.178.022.156.022.379.067.669.112a20.579,20.579,0,0,1,2.3.558,8.155,8.155,0,0,1,1.405.58,5.757,5.757,0,0,1,.714.4,2.17,2.17,0,0,1,.335.245,3.515,3.515,0,0,1,.335.268c.446.357.915.781,1.383,1.227s.959.892,1.472,1.316,8.789,7.629,19.251,8.945c-3.279-.892-12.2-4.082-17.177-10.418" transform="translate(-13.027 -122.521)" fill="#fff"/>
    <path id="Path_127" data-name="Path 127" d="M274.354,204.635a23.622,23.622,0,0,0,1.472-1.874c.535-.736,1.071-1.472,1.517-2.231s.87-1.495,1.227-2.231.669-1.428.937-2.075c.268-.669.491-1.272.669-1.829s.335-1.026.446-1.45c.223-.8.312-1.272.312-1.272a11.979,11.979,0,0,1-.045,1.338,19.476,19.476,0,0,1-.625,3.458,21.951,21.951,0,0,1-.736,2.253c-.134.4-.335.781-.491,1.2-.2.4-.379.8-.6,1.2l-.335.6c-.112.2-.245.4-.357.6a14.129,14.129,0,0,1-.8,1.2c-.112.134-.2.29-.312.424,1.517-1.874,8.566-10.551,5.956-22.173a16.316,16.316,0,0,1,.4,14.723h0a37.059,37.059,0,0,0,3.837-12.76c1.45-11.533-6.781-16.641-6.625-16.574,8.834,2.632,8.633,14.254,8.633,14.567.223-1.472.379-2.833.535-4.685,0,0,.022-.468.022-.758a22.718,22.718,0,0,0-.022-2.431,14.805,14.805,0,0,0-.156-1.628c-.067-.58-.178-1.182-.29-1.807-.134-.625-.29-1.272-.468-1.918s-.4-1.294-.647-1.941a19.913,19.913,0,0,0-.825-1.874c-.156-.29-.29-.6-.468-.892-.156-.29-.312-.58-.491-.848s-.335-.535-.513-.8a8.882,8.882,0,0,0-.535-.736c-.178-.223-.357-.468-.535-.692s-.357-.424-.513-.625c-.357-.379-.669-.736-.959-1.026-.312-.29-.558-.558-.781-.758-.446-.4-.714-.625-.714-.625s.29.2.781.535c.245.156.535.4.87.647.335.268.691.58,1.093.915.2.178.379.357.6.558.2.2.4.424.6.625.223.223.4.446.625.692s.424.491.625.758l.6.8a8.415,8.415,0,0,1,.58.87c.379.58.736,1.2,1.093,1.851.335.647.647,1.294.915,1.963.29.647.513,1.316.736,1.963.2.647.379,1.294.535,1.9a11.076,11.076,0,0,1,.2,1.985,3.2,3.2,0,0,1,.134-.825,9.937,9.937,0,0,1,.491-1.272,4.263,4.263,0,0,1,.335-.625c.112-.2.245-.4.379-.6a5.834,5.834,0,0,1,4.283-2.208,6.088,6.088,0,0,1,1.517.067,3.194,3.194,0,0,1,.558.112c-5.51,1.071-7.428,6.068-8.343,9.3l-.312,1.383a64,64,0,0,1-1.941,7.518c.022-.022.022-.045.045-.067l.067-.089c4.528-6.4,10.752-2.075,10.752-2.075a14.825,14.825,0,0,0-4.305.045,8.271,8.271,0,0,0-3.614,1.428,13.093,13.093,0,0,0-2.833,3.056c-.6,1-1.249,1.963-1.829,2.989-.513.915-1.048,1.807-1.517,2.721a2,2,0,0,1-.112.2c-.468.781-.959,1.562-1.495,2.3a23.962,23.962,0,0,1-2.275,2.5c-.424.424-.8.8-1.093,1.071a21.772,21.772,0,0,1-1.985,2.119,3.4,3.4,0,0,1,.357-.245,7.682,7.682,0,0,1,1.718-.848,10.158,10.158,0,0,1,1.628-.4,8.006,8.006,0,0,1,1.383-.112,7.739,7.739,0,0,1,1.071.045c.29.022.513.067.669.067.156.022.223.045.245.045a.172.172,0,0,0-.067.022c-.045,0-.089.022-.178.022-.156.022-.379.067-.669.112a20.579,20.579,0,0,0-2.3.558,8.155,8.155,0,0,0-1.405.58,5.756,5.756,0,0,0-.714.4,2.167,2.167,0,0,0-.335.245,3.511,3.511,0,0,0-.335.268c-.446.357-.915.781-1.383,1.227s-.959.892-1.472,1.316-8.789,7.629-19.251,8.945c3.257-.892,12.18-4.082,17.154-10.418" transform="translate(-199.8 -122.521)" fill="#fff"/>
    <path id="Path_128" data-name="Path 128" d="M6.83,318.267c-.312-.513-.87-.58-1.651-.245l-2.588,1.16a10.12,10.12,0,0,1-2.052-3.3,5.49,5.49,0,0,1-.089-4.395,5.158,5.158,0,0,1,2.744-2.7,5.217,5.217,0,0,1,4.127-.178,5.748,5.748,0,0,1,3.346,3.48,7.012,7.012,0,0,1,.625,3.078L8.48,316.438a2.916,2.916,0,0,0,.982-1.785,3.876,3.876,0,0,0-.245-2.052,3.116,3.116,0,0,0-1.963-1.9,3.851,3.851,0,0,0-2.878.245,4.356,4.356,0,0,0-2.142,1.941,3.121,3.121,0,0,0-.112,2.744,4.715,4.715,0,0,0,.647,1.093l1.517-.692q1.171-.535,1-1.472" transform="translate(0 -239.5)" fill="#fff"/>
    <path id="Path_129" data-name="Path 129" d="M33.828,366.252l-2.989,1.785L26.4,362.281c.4.335,1.071.112,1.985-.647l5.175-4.328c.8-.691,1.093-1.272.848-1.807l2.365,3.078c-.424-.379-1.048-.245-1.874.446l-5.577,4.662,1.338,1.74a2.58,2.58,0,0,0,1.383.959,3.393,3.393,0,0,0,1.785-.134" transform="translate(-20.485 -276.198)" fill="#fff"/>
    <path id="Path_130" data-name="Path 130" d="M71.5,403.708l-2.387,2.186-5.51-4.707c.535.29,1.138,0,1.852-.892l4.261-5.443c.647-.825.736-1.517.29-2.052l5.465,4.662-1.852,2.365a1.835,1.835,0,0,0-.446-2.454l-1.562-1.316-1.9,2.409,1.361,1.16c.558.468,1.026.513,1.45.156l-1.9,2.409c.268-.491.112-.959-.424-1.428l-1.383-1.182-1.941,2.476,1.673,1.405a2.368,2.368,0,0,0,1.405.647,2.232,2.232,0,0,0,1.539-.4" transform="translate(-49.387 -305.177)" fill="#fff"/>
    <path id="Path_131" data-name="Path 131" d="M126.9,427.807c-.558-.134-1.048.268-1.472,1.227l-3.658,8.12-1.45-.714a5.953,5.953,0,0,0,0-.892,12.111,12.111,0,0,0-.357-2.409l-1.338-5.488-2.231,4.952c-.424.959-.379,1.628.156,2.008l-3.145-1.539c.535.134,1.026-.29,1.45-1.249l2.878-6.4a1.862,1.862,0,0,0-.045-1.539,2.424,2.424,0,0,0-.468-.781l2.967,1.45,1.829,7.9,1.852-4.127c.424-.959.4-1.628-.067-1.985" transform="translate(-88.078 -328.718)" fill="#fff"/>
    <path id="Path_132" data-name="Path 132" d="M195.652,456.12l-.758,3.212-7.094-.625c.6-.067.937-.669,1.026-1.829l.558-7c.089-1.071-.2-1.673-.87-1.874l7.049.6-.245,3.056a1.739,1.739,0,0,0-1.7-1.762l-2.008-.178-.245,3.123,1.74.156c.714.067,1.138-.178,1.294-.736l-.245,3.123c-.045-.558-.424-.87-1.115-.915l-1.762-.156-.245,3.19,2.142.178a2.48,2.48,0,0,0,1.517-.29,3.566,3.566,0,0,0,.959-1.271" transform="translate(-145.881 -348.063)" fill="#fff"/>
    <path id="Path_133" data-name="Path 133" d="M252.157,454.7l-2.119-3.859-.87,4.328m8.12,2.565-4.194.669a.688.688,0,0,0,.558-.825,3.691,3.691,0,0,0-.379-.825l-.357-.714-4.015.625-.156.781a2.893,2.893,0,0,0-.089.87.7.7,0,0,0,.825.669l-3.48.558a.892.892,0,0,0,.4-.335,4.847,4.847,0,0,0,.758-1.963l1.985-9.057,1.807-.29,4.6,8.1q.9,1.673,1.74,1.74" transform="translate(-191.098 -347.986)" fill="#fff"/>
    <path id="Path_134" data-name="Path 134" d="M360.606,404.066l1.829,3.034-5.354,4.841c.312-.424.067-1.115-.692-2.03l-4.328-5.22c-.691-.825-1.271-1.093-1.762-.8l2.855-2.588c-.357.468-.178,1.115.513,1.941l4.685,5.621,1.628-1.472a2.518,2.518,0,0,0,.848-1.472,3.836,3.836,0,0,0-.223-1.852" transform="translate(-272.132 -311.781)" fill="#fff"/>
    <path id="Path_135" data-name="Path 135" d="M313.136,431.128q-.669.569-.067,1.74l1.383,2.588a9.552,9.552,0,0,1-2.945,2.454,4.865,4.865,0,0,1-4.171.535,5.043,5.043,0,0,1-2.855-2.588,5.818,5.818,0,0,1-.58-4.261,5.883,5.883,0,0,1,2.967-3.837,6.258,6.258,0,0,1,2.878-.959l1.495,2.788a2.749,2.749,0,0,0-1.807-.848,3.359,3.359,0,0,0-1.918.468,3.155,3.155,0,0,0-1.606,2.231,4.445,4.445,0,0,0,.513,2.967,4.249,4.249,0,0,0,2.075,2.03,2.824,2.824,0,0,0,2.632-.156,4.326,4.326,0,0,0,.982-.781l-.8-1.517c-.424-.781-.915-1.071-1.495-.892" transform="translate(-235.949 -331.592)" fill="#fff"/>
    <path id="Path_136" data-name="Path 136" d="M395.351,357.615l2.231,2.365-4.194,6c.245-.558-.067-1.182-.959-1.874l-5.443-4.149c-.825-.625-1.495-.692-1.985-.2l4.171-5.956,2.365,1.807a1.667,1.667,0,0,0-2.342.6l-1.182,1.7,2.432,1.852,1.026-1.472c.424-.6.446-1.115.067-1.517l2.431,1.851c-.491-.245-.915-.067-1.338.513l-1.048,1.495,2.476,1.9,1.249-1.829a2.705,2.705,0,0,0,.558-1.495,3.057,3.057,0,0,0-.513-1.584" transform="translate(-299.091 -274.877)" fill="#fff"/>
    <path id="Path_137" data-name="Path 137" d="M427.88,312.551a2.808,2.808,0,0,1,1.785,1.9,4.807,4.807,0,0,1-.2,2.922,5.415,5.415,0,0,1-1.762,2.588l-3.056-1.2a3.466,3.466,0,0,0,2.275-.513,2.851,2.851,0,0,0,1.138-1.495,2.329,2.329,0,0,0,.112-1.271.986.986,0,0,0-.647-.758,1.528,1.528,0,0,0-1.45.29c-.112.067-.58.513-1.45,1.316a5.963,5.963,0,0,1-1.495,1.048,2.42,2.42,0,0,1-1.852.022,2.822,2.822,0,0,1-1.74-1.785,4.234,4.234,0,0,1,.112-2.811,4.15,4.15,0,0,1,1.495-2.1l2.543,1a2.42,2.42,0,0,0-1.74.513,2.679,2.679,0,0,0-.937,1.294,1.7,1.7,0,0,0-.067,1.182,1.024,1.024,0,0,0,.6.647q.7.268,1.74-.669c1.16-1.071,1.829-1.673,1.963-1.762a2.631,2.631,0,0,1,2.632-.357" transform="translate(-325.776 -241.391)" fill="#fff"/>
    <path id="Path_138" data-name="Path 138" d="M249.33,340.475c.424-.067.714-.513,1.16-.446a.432.432,0,0,0,.4-.067.268.268,0,0,0,0-.335,1.723,1.723,0,0,0-.379-.424,8.854,8.854,0,0,1-.781-.446.185.185,0,0,1-.067-.178c.112-.268.937.29,1.026.335.357.178,1.405-.2,1.071-.669-.2-.268-.625-.156-.915-.178-.312-.022-.6-.022-.915-.067a.915.915,0,0,1-.491-.156c-.134-.112,0-.268.112-.29a1.109,1.109,0,0,1,.625.112c.245.089.848.29,1.048,0,.156-.245-.156-.669-.4-.691-.268-.045-.535.156-.8.178a1.748,1.748,0,0,1-.58-.089.861.861,0,0,1-.379-.245,3.191,3.191,0,0,1-.268-.468c-.089-.156-.178-.312-.268-.491a5.929,5.929,0,0,1-.468-1.182,9.978,9.978,0,0,1-.446-2.075,3.594,3.594,0,0,1-.714,1.584c-.178.268-.4.491-.6.736a2.19,2.19,0,0,0-.491,1.271.835.835,0,0,0,.022.223.793.793,0,0,0,.045.223s.335-.959,1.071-1.071a.753.753,0,0,1,.736.469,2,2,0,0,1,.2,1.071.94.94,0,0,1-.223.446c-.335.29-.781.134-1.16.089-.335-.045-.937.022-.736.535a1.117,1.117,0,0,0,1.093.647,1.52,1.52,0,0,0,.58-.335,1.083,1.083,0,0,1,1-.156.651.651,0,0,1,.424.625,1.44,1.44,0,0,1-.089.424.931.931,0,0,0-.022.692.51.51,0,0,0,.58.4" transform="translate(-190.881 -258.406)" fill="#fff"/>
    <path id="Path_139" data-name="Path 139" d="M240.757,357a1.858,1.858,0,0,0-.558,2.722c-.29-1.294,1.316-1.807,1.316-1.807a1.124,1.124,0,0,1-.758-.915" transform="translate(-186.301 -277.363)" fill="#fff"/>
    <path id="Path_140" data-name="Path 140" d="M259.294,367.581s.669,1.584-1.294,1.852c0,0,2.7.29,2.387-2.186a1.026,1.026,0,0,0-1.093.335" transform="translate(-200.421 -285.289)" fill="#fff"/>
    <path id="Path_141" data-name="Path 141" d="M269.234,360.668a1.863,1.863,0,0,1-.134,2.7,2.075,2.075,0,0,0,1.048-3.168c-.223.535-.915.468-.915.468" transform="translate(-209.045 -279.849)" fill="#fff"/>
    <path id="Path_142" data-name="Path 142" d="M195.461,334.924a9.088,9.088,0,0,1-.736-.558,1.54,1.54,0,0,1-.357-.4c-.067-.156.134-.223.245-.179a.8.8,0,0,1,.312.245,1.226,1.226,0,0,1,.156.2c.178.2.58.714.892.58.268-.134.2-.647,0-.8-.223-.178-.535-.156-.781-.29a1.866,1.866,0,0,1-.446-.4.936.936,0,0,1-.2-.424,2.156,2.156,0,0,1,.022-.535V331.8a7.68,7.68,0,0,1,.2-1.249,7.155,7.155,0,0,1,.335-1.182,2.912,2.912,0,0,1,.468-.8l.067-.067a5.264,5.264,0,0,1-1.807,1.093c-.29.112-.6.178-.87.312a2.222,2.222,0,0,0-.736.558,1.488,1.488,0,0,0-.29.558,1.573,1.573,0,0,1,1.45-.312.7.7,0,0,1,.335.335.928.928,0,0,1,.045.491,1.971,1.971,0,0,1-.379,1,.761.761,0,0,1-.4.245c-.446.067-.736-.335-1.026-.58-.268-.223-.8-.513-.892.045a1.16,1.16,0,0,0,.6,1.138,2.258,2.258,0,0,0,.669.045.986.986,0,0,1,.915.424.71.71,0,0,1,.045.781,1.272,1.272,0,0,1-.29.312.893.893,0,0,0-.357.58.6.6,0,0,0,.335.625c.379.178.848-.045,1.2.268a.4.4,0,0,0,.379.156c.112-.022.178-.178.178-.29a1.461,1.461,0,0,0-.112-.558c-.112-.29-.357-.513-.446-.825a.175.175,0,0,1,.022-.178c.223-.178.647.758.714.848.2.357,1.294.6,1.249.022-.045-.357-.491-.491-.714-.669" transform="translate(-148.411 -255.221)" fill="#fff"/>
    <path id="Path_143" data-name="Path 143" d="M183.527,343.5a1.79,1.79,0,0,0-1.851,2.008c.4-1.272,2.03-.825,2.03-.825a1.142,1.142,0,0,1-.178-1.182" transform="translate(-141.117 -266.874)" fill="#fff"/>
    <path id="Path_144" data-name="Path 144" d="M194.822,364.75a1.04,1.04,0,0,0-1.093-.312s-.245,1.718-2.03.87c-.022-.022,2.141,1.718,3.123-.558" transform="translate(-148.91 -283.105)" fill="#fff"/>
    <path id="Path_145" data-name="Path 145" d="M203.995,362.2a1.774,1.774,0,0,1-1.495,2.208c2.521.535,2.5-2.1,2.5-2.1a.925.925,0,0,1-1-.112" transform="translate(-157.302 -281.403)" fill="#fff"/>
    <path id="Path_146" data-name="Path 146" d="M150,50.682c-.134-.045-.736-.089-.8.067a.841.841,0,0,1-.848.6c-.625,0-.625-.491-.8-.491a10.627,10.627,0,0,1-6.2-1.093c-1.338-.781-3.658-.089-4.618.268-.112.045-.223.067-.335.112-.045.022-.112.045-.156.067a2.915,2.915,0,0,1,.892,1.562,1.577,1.577,0,0,1-.781,1.539,1.784,1.784,0,0,0,.112-1.762,6.257,6.257,0,0,0-1.026-1.227c-2.275-2.075-5.175-6.313-6.915-14.745-.112-.513-.245-1.026-.357-1.517-.223-.915-.468-1.829-.647-2.744a4.567,4.567,0,0,0-.379-1.182,3.855,3.855,0,0,0-.848-.959c-.513-.535-1.071-1.026-1.584-1.539-.647-.647-1.272-1.316-1.9-2.008a23.077,23.077,0,0,1-1.74-2.164l-2.588-3.391S108.867,8.655,105.544,0c0,0-1.874,7.228,7.584,17.757,0,0,4.015,4.863,4.841,5.845h-.022c-.915-.87-10.418-9.9-15.905-18.716,0,0-1.7,6.358,9.659,15.794l5.778,4.707s-15.325-10.8-18.515-15.459c0,0-.045,4.305,6.6,9.7,0,0,8.544,6.157,11.02,7.384,0,0-14.433-6.96-18.85-12.447,0,0-.067,7.183,19.452,14.834a4.416,4.416,0,0,0,.268,2.454c.089.2.134.4.223.6-.089-.067-.156-.134-.245-.2a2.725,2.725,0,0,1-.714-.8,5.265,5.265,0,0,1-.468-1.16,2.409,2.409,0,0,1-.045-.692S108.176,26.858,97,19.14c0,0,.468,8.432,18.4,13.117a4.676,4.676,0,0,0,.87,2.253l.112.134a2.918,2.918,0,0,1-1.361-1.918s-9.079-2.3-13.831-5.086c0,0,1.9,6.335,13.384,7.228a3.408,3.408,0,0,0,.714,2.32,2.42,2.42,0,0,1-1.2-1.852,28.1,28.1,0,0,1-9.994-2.365s.357,4.64,9.927,5.309a4.368,4.368,0,0,0,.8,2.164,3.026,3.026,0,0,1-1.272-1.562s-5.488-.379-8.3-2.208c0,0-.156,4.573,8.5,5.51a2.643,2.643,0,0,0,1.227,1.071,1.417,1.417,0,0,1-1.383-.6,22.4,22.4,0,0,1-7.027-1.495s.736,5.019,8.231,4.885a16,16,0,0,1-6.335-.022s.848,3.391,7.295,2.632a13.626,13.626,0,0,1-5.153.692s1.383,2.744,7.228,2.342c0,0-3.636.781-4.975.424,0,0,1.026,3.078,7.294,2.164a10.414,10.414,0,0,1-5.532.491s1.517,3.235,6.715,2.03c0,0-.491.8-4.082.915,0,0,1.361,1.807,6.469.758-.022,0-.089.067-.112.089-.089.067-.2.156-.29.223a3.189,3.189,0,0,1-1.16.513,8.05,8.05,0,0,1-1.45.178h-.424l-1.428-.089s-6.447,3.458-8.053,4.06c-4.372,1.673-4.93,3.48-4.93,3.48l9.614-4.551s-8.856,5.577-13.964,6.268c0,0,1.539,2.431,6.023-.112,4.305-2.431,10.574-5.666,11.221-6.023l-11.131,6.781s2.164.982,6.291-2.03a4.27,4.27,0,0,1-1.338,1.562,6.535,6.535,0,0,0,4.975-2.052s-.379.892-.647,1.048a3.345,3.345,0,0,0,.58.022,5.833,5.833,0,0,0,2.186-.692,13.437,13.437,0,0,1,2.164-.982,10.044,10.044,0,0,1,1.405-.379h0a6.48,6.48,0,0,0-2.855,1.7h.022l-.357.357a8.858,8.858,0,0,0-1.606,2.632,12.3,12.3,0,0,0-.6,2.03s1.852-2.075,3.48-2.387a6.576,6.576,0,0,0-3.435,5.153,5.974,5.974,0,0,1,2.476-1.517,17.962,17.962,0,0,0,4.238-2.409,6.464,6.464,0,0,0-2.119,3.926l7.852-8.544c-1.539,1.785-2.811,4.618-1.539,10.061,0,0,.669-3.525,1.963-4.528,0,0-1.673,3.837-1,5.532a5.474,5.474,0,0,1,.178-.8,5.3,5.3,0,0,1,1.071-1.718,6.341,6.341,0,0,0,1.048-3.034c.022-.089.045-.178.067-.245a6.587,6.587,0,0,0,.4,2.788,29.29,29.29,0,0,1,1.182-4.573,20.515,20.515,0,0,1,2.275-4.6c1.115-1.628,2.766-2.677,4.216-3.948a10.525,10.525,0,0,0,1.963-2.142,13.934,13.934,0,0,1,1.517-2.632c.178-.156.335-.335.513-.491.245-.223.982-.8,1.16-.067a2.806,2.806,0,0,1,2.342-2.1s-.982-.312-.535-.714c.446-.379,3.1-2.744,2.833-2.833" transform="translate(-75.336)" fill="#fff"/>
  </g>
</svg>
