<svg id="Group_1491" data-name="Group 1491" xmlns="http://www.w3.org/2000/svg" xmlns:xlink="http://www.w3.org/1999/xlink" width="130" height="34.642" viewBox="0 0 130 34.642">
  <defs>
    <clipPath id="clip-path">
      <rect id="Rectangle_646" data-name="Rectangle 646" width="130" height="34.642" fill="none"/>
    </clipPath>
  </defs>
  <g id="Group_1490" data-name="Group 1490" transform="translate(0 0)" clip-path="url(#clip-path)">
    <path id="Path_117" data-name="Path 117" d="M15.6,0H5.488A1.4,1.4,0,0,0,4.1,1.187L.01,27.116a.842.842,0,0,0,.834.973H5.672A1.4,1.4,0,0,0,7.06,26.9l1.1-6.993A1.4,1.4,0,0,1,9.55,18.72h3.2c6.661,0,10.5-3.223,11.509-9.61.452-2.794.019-4.99-1.289-6.528C21.533.894,18.984,0,15.6,0m1.167,9.47C16.213,13.1,13.441,13.1,10.761,13.1H9.235l1.07-6.776a.842.842,0,0,1,.832-.711h.7c1.826,0,3.548,0,4.439,1.041a3.37,3.37,0,0,1,.491,2.818" transform="translate(0 0)" fill="#fff"/>
    <path id="Path_118" data-name="Path 118" d="M38.406,6.474H33.564a.843.843,0,0,0-.832.711L32.517,8.54l-.339-.491c-1.048-1.521-3.386-2.03-5.719-2.03a11.135,11.135,0,0,0-10.811,9.738,9.14,9.14,0,0,0,1.8,7.438,7.576,7.576,0,0,0,6.1,2.463,9.265,9.265,0,0,0,6.7-2.772l-.216,1.345a.842.842,0,0,0,.831.976H35.23a1.4,1.4,0,0,0,1.388-1.187L39.236,7.447a.839.839,0,0,0-.829-.973M31.657,15.9a5.4,5.4,0,0,1-5.463,4.623,4.084,4.084,0,0,1-3.251-1.306,4.117,4.117,0,0,1-.76-3.4,5.42,5.42,0,0,1,5.426-4.66,4.085,4.085,0,0,1,3.229,1.319,4.191,4.191,0,0,1,.819,3.426" transform="translate(7.419 2.88)" fill="#fff"/>
    <path id="Path_119" data-name="Path 119" d="M55.737,6.327H50.872a1.41,1.41,0,0,0-1.164.617L43,16.829l-2.845-9.5a1.409,1.409,0,0,0-1.348-1H34.023a.843.843,0,0,0-.8,1.115l5.36,15.728-5.039,7.113a.843.843,0,0,0,.688,1.331h4.86a1.4,1.4,0,0,0,1.155-.6L56.429,7.65a.842.842,0,0,0-.692-1.323" transform="translate(15.876 3.028)" fill="#fff"/>
    <path id="Path_120" data-name="Path 120" d="M64.381,0H54.268a1.4,1.4,0,0,0-1.387,1.186l-4.09,25.929a.841.841,0,0,0,.831.973h5.19a.983.983,0,0,0,.97-.831l1.161-7.35a1.4,1.4,0,0,1,1.387-1.187h3.2c6.662,0,10.5-3.223,11.51-9.61.454-2.794.018-4.99-1.291-6.528C70.313.894,67.765,0,64.381,0m1.167,9.47C65,13.1,62.224,13.1,59.542,13.1H58.017l1.072-6.776a.84.84,0,0,1,.831-.711h.7c1.824,0,3.548,0,4.439,1.041a3.37,3.37,0,0,1,.489,2.818" transform="translate(23.342 0)" fill="#fff"/>
    <path id="Path_121" data-name="Path 121" d="M87.184,6.474H82.345a.839.839,0,0,0-.831.711L81.3,8.54l-.34-.491c-1.048-1.521-3.384-2.03-5.717-2.03a11.134,11.134,0,0,0-10.809,9.738,9.144,9.144,0,0,0,1.8,7.438,7.58,7.58,0,0,0,6.1,2.463,9.265,9.265,0,0,0,6.7-2.772l-.216,1.345a.843.843,0,0,0,.834.976h4.36A1.4,1.4,0,0,0,85.4,24.02L88.02,7.447a.844.844,0,0,0-.835-.973M80.435,15.9a5.394,5.394,0,0,1-5.463,4.623,4.088,4.088,0,0,1-3.251-1.306,4.127,4.127,0,0,1-.76-3.4,5.422,5.422,0,0,1,5.426-4.66,4.085,4.085,0,0,1,3.229,1.319,4.17,4.17,0,0,1,.819,3.426" transform="translate(30.763 2.88)" fill="#fff"/>
    <path id="Path_122" data-name="Path 122" d="M84.982.713l-4.15,26.4a.841.841,0,0,0,.831.973h4.172A1.4,1.4,0,0,0,87.223,26.9L91.316.974A.842.842,0,0,0,90.485,0H85.813a.845.845,0,0,0-.831.713" transform="translate(38.674 0)" fill="#fff"/>
  </g>
</svg>
